<?xml version="1.0" encoding="utf-8"?>
<!-- Generator: Adobe Illustrator 24.0.0, SVG Export Plug-In . SVG Version: 6.00 Build 0)  -->
<svg version="1.1" id="Layer_1" xmlns="http://www.w3.org/2000/svg" xmlns:xlink="http://www.w3.org/1999/xlink" x="0px" y="0px"
	 viewBox="0 0 100 100" style="enable-background:new 0 0 100 100;" xml:space="preserve">
<style type="text/css">
	.st0{fill:#DEDCE7;}
	.st1{fill:url(#SVGID_1_);}
	.st2{fill:url(#SVGID_2_);}
	.st3{fill:url(#SVGID_3_);}
	.st4{fill:url(#SVGID_4_);}
	.st5{fill:url(#SVGID_5_);}
</style>
<g>
	<g>
		<path class="st0" d="M87.5,51h-75c-0.6,0-1-0.4-1-1s0.4-1,1-1h75c0.6,0,1,0.4,1,1S88.1,51,87.5,51z"/>
	</g>
	<g>
		<path class="st0" d="M87.5,61h-75c-0.6,0-1-0.4-1-1s0.4-1,1-1h75c0.6,0,1,0.4,1,1S88.1,61,87.5,61z"/>
	</g>
	<g>
		<path class="st0" d="M87.5,71h-75c-0.6,0-1-0.4-1-1s0.4-1,1-1h75c0.6,0,1,0.4,1,1S88.1,71,87.5,71z"/>
	</g>
	<g>
		<path class="st0" d="M87.5,41h-75c-0.6,0-1-0.4-1-1s0.4-1,1-1h75c0.6,0,1,0.4,1,1S88.1,41,87.5,41z"/>
	</g>
	<g>
		<path class="st0" d="M87.5,31h-75c-0.6,0-1-0.4-1-1s0.4-1,1-1h75c0.6,0,1,0.4,1,1S88.1,31,87.5,31z"/>
	</g>
	<g>
		<linearGradient id="SVGID_1_" gradientUnits="userSpaceOnUse" x1="11.5" y1="50" x2="78.5" y2="50">
			<stop  offset="0" style="stop-color:#20E2AD"/>
			<stop  offset="1" style="stop-color:#08AEEC"/>
		</linearGradient>
		<path class="st1" d="M77.5,51h-65c-0.6,0-1-0.4-1-1s0.4-1,1-1h65c0.6,0,1,0.4,1,1S78.1,51,77.5,51z"/>
	</g>
	<g>
		<linearGradient id="SVGID_2_" gradientUnits="userSpaceOnUse" x1="11.5" y1="60" x2="68.5" y2="60">
			<stop  offset="0" style="stop-color:#20E2AD"/>
			<stop  offset="1" style="stop-color:#08AEEC"/>
		</linearGradient>
		<path class="st2" d="M67.5,61h-55c-0.6,0-1-0.4-1-1s0.4-1,1-1h55c0.6,0,1,0.4,1,1S68.1,61,67.5,61z"/>
	</g>
	<g>
		<linearGradient id="SVGID_3_" gradientUnits="userSpaceOnUse" x1="11.5" y1="70" x2="58.5" y2="70">
			<stop  offset="0" style="stop-color:#20E2AD"/>
			<stop  offset="1" style="stop-color:#08AEEC"/>
		</linearGradient>
		<path class="st3" d="M57.5,71h-45c-0.6,0-1-0.4-1-1s0.4-1,1-1h45c0.6,0,1,0.4,1,1S58.1,71,57.5,71z"/>
	</g>
	<g>
		<linearGradient id="SVGID_4_" gradientUnits="userSpaceOnUse" x1="11.5" y1="40" x2="58.5" y2="40">
			<stop  offset="0" style="stop-color:#20E2AD"/>
			<stop  offset="1" style="stop-color:#08AEEC"/>
		</linearGradient>
		<path class="st4" d="M57.5,41h-45c-0.6,0-1-0.4-1-1s0.4-1,1-1h45c0.6,0,1,0.4,1,1S58.1,41,57.5,41z"/>
	</g>
	<g>
		<linearGradient id="SVGID_5_" gradientUnits="userSpaceOnUse" x1="11.5" y1="30" x2="68.5" y2="30">
			<stop  offset="0" style="stop-color:#20E2AD"/>
			<stop  offset="1" style="stop-color:#08AEEC"/>
		</linearGradient>
		<path class="st5" d="M67.5,31h-55c-0.6,0-1-0.4-1-1s0.4-1,1-1h55c0.6,0,1,0.4,1,1S68.1,31,67.5,31z"/>
	</g>
</g>
</svg>
