<?xml version="1.0" encoding="utf-8"?>
<!-- Generator: Adobe Illustrator 24.0.0, SVG Export Plug-In . SVG Version: 6.00 Build 0)  -->
<svg version="1.1" id="Layer_1" xmlns="http://www.w3.org/2000/svg" xmlns:xlink="http://www.w3.org/1999/xlink" x="0px" y="0px"
	 viewBox="0 0 100 100" style="enable-background:new 0 0 100 100;" xml:space="preserve">
<style type="text/css">
	.st0{fill:url(#SVGID_1_);}
	.st1{fill:#DEDCE7;}
</style>
<g>
	<g>
		<linearGradient id="SVGID_1_" gradientUnits="userSpaceOnUse" x1="23.3301" y1="50" x2="40.6768" y2="50">
			<stop  offset="0" style="stop-color:#20E2AD"/>
			<stop  offset="1" style="stop-color:#08AEEC"/>
		</linearGradient>
		<path class="st0" d="M39.7,51H24.3c-0.6,0-1-0.4-1-1s0.4-1,1-1h15.3c0.6,0,1,0.4,1,1S40.2,51,39.7,51z"/>
	</g>
	<g>
		<path class="st1" d="M75.7,51H49.3c-0.6,0-1-0.4-1-1s0.4-1,1-1h26.3c0.6,0,1,0.4,1,1S76.2,51,75.7,51z"/>
	</g>
	<g>
		<path class="st1" d="M42.2,57c-0.1,0-0.2,0-0.4-0.1c-0.5-0.2-0.8-0.8-0.6-1.3l4.6-12c0.2-0.5,0.8-0.8,1.3-0.6
			c0.5,0.2,0.8,0.8,0.6,1.3l-4.6,12C43,56.8,42.6,57,42.2,57z"/>
	</g>
</g>
</svg>
