<svg width="660" height="569" viewBox="0 0 660 569" fill="none" xmlns="http://www.w3.org/2000/svg">

	<style type="text/css">
		.animation {
    -webkit-animation: rotation 3.75s infinite linear;
    -moz-animation: rotation 3.75s infinite linear;
    -o-animation: rotation 3.75s infinite linear;
    animation: rotation 3.75s infinite linear;
    -webkit-transform-origin: 287px 301px;
    -ms-transform-origin: 287px 301px;
    transform-origin: 287px 301px;
}

@-webkit-keyframes rotation {
    from {-webkit-transform: rotate(349deg);}
    to   {-webkit-transform: rotate(0deg);}
}


  .animation-cercel {
    animation-name: stretch;
    animation-duration: 5.5s; 
    animation-timing-function: ease-out;  
    animation-delay: 0;
    animation-direction: alternate;
    animation-iteration-count: infinite;
    animation-fill-mode: none;
    animation-play-state: running;       
    transform-origin: center bottom;
}

  .animation-cercel-1 {
    animation-name: stretch;
    animation-duration: 1s; 
    animation-timing-function: ease-out;  
    animation-delay: 0;
    animation-direction: alternate;
    animation-iteration-count: infinite;
    animation-fill-mode: none;
    animation-play-state: running;       
    transform-origin: 100px 267px;
}

  /* .animation-cercel-2 {
    animation-name: stretch;
    animation-duration: 1s; 
    animation-timing-function: ease-out;  
    animation-delay: 0;
    animation-direction: alternate;
    animation-iteration-count: infinite;
    animation-fill-mode: none;
    animation-play-state: running;       
    transform-origin: 167px 516px;
} */


.animation-cercel-2 {
      animation-name: rotation;
      animation-duration: 1.5s; 
      animation-timing-function: ease-out;  
      animation-delay: 0;
      animation-direction: alternate;
      animation-iteration-count: infinite;
      animation-fill-mode: none;
      animation-play-state: running; 
    -webkit-transform-origin: 164px 529px;
    -ms-transform-origin: 164px 529px;
     transform-origin: 164px 529px;
}

@-webkit-keyframes rotation {
  from {-webkit-transform: rotate(-15deg);}
  to   {-webkit-transform: rotate(0deg);}
}




  .animation-cercel-3 {
    animation-name: stretch;
    animation-duration: 1s; 
    animation-timing-function: ease-out;  
    animation-delay: 0;
    animation-direction: alternate;
    animation-iteration-count: infinite;
    animation-fill-mode: none;
    animation-play-state: running;       
    transform-origin: 214px 516px;
}


@-webkit-keyframes stretch {
    0% {
    transform: scale(1);
  }

  100% {
    transform: scale(1.1);

  }
}
	</style>
<path d="M510.258 404.544C510.258 404.544 521.764 394.861 531.602 404.544C541.44 414.228 543.441 473.666 543.441 473.666" stroke="#1AD4FF" stroke-miterlimit="10"/>
<path d="M544.275 485.186C544.275 485.186 537.438 415.23 563.117 386.012" stroke="#1AD4FF" stroke-miterlimit="10"/>
<path d="M541.773 477.84C541.773 477.84 546.942 398.367 527.766 380.669" stroke="#1AD4FF" stroke-miterlimit="10"/>
<path d="M544.273 477.84C544.273 477.84 544.774 425.247 558.948 417.066C573.121 408.885 580.458 435.599 580.458 435.599" stroke="#1AD4FF" stroke-miterlimit="10"/>
<path d="M538.605 477.84C538.605 477.84 540.939 437.435 529.934 423.077C518.928 408.718 507.256 429.254 507.256 429.254" stroke="#1AD4FF" stroke-miterlimit="10"/>
<path d="M542.441 483.183C542.441 483.183 535.27 388.85 547.11 372.822" stroke="#1AD4FF" stroke-miterlimit="10"/>
<path d="M573.639 421.216C573.639 421.216 566.469 423.887 568.637 430.065C570.805 436.242 593.149 446.427 593.149 446.427C593.149 446.427 602.487 437.745 593.983 423.72C585.312 409.696 573.806 416.708 573.639 421.216Z" fill="url(#paint0_linear)"/>
<path d="M573.639 421.216C573.639 421.216 566.469 423.887 568.637 430.065C570.805 436.242 593.149 446.427 593.149 446.427C593.149 446.427 602.487 437.745 593.983 423.72C585.312 409.696 573.806 416.708 573.639 421.216Z" fill="url(#paint1_linear)"/>
<path d="M540.273 412.892C540.273 412.892 547.777 412.558 548.277 419.07C548.777 425.581 531.936 443.613 531.936 443.613C531.936 443.613 519.929 439.272 522.431 422.91C525.099 406.882 538.439 408.885 540.273 412.892Z" fill="url(#paint2_linear)"/>
<path d="M540.273 412.892C540.273 412.892 547.777 412.558 548.277 419.07C548.777 425.581 531.936 443.613 531.936 443.613C531.936 443.613 519.929 439.272 522.431 422.91C525.099 406.882 538.439 408.885 540.273 412.892Z" fill="url(#paint3_linear)"/>
<path d="M531.551 384.046C531.551 384.046 536.554 383.545 536.22 380.373C535.887 377.368 516.543 369.354 505.371 382.21C505.371 382.21 512.541 394.732 523.047 394.898C533.552 395.065 531.551 384.046 531.551 384.046Z" fill="url(#paint4_linear)"/>
<path d="M545.251 375.168C545.251 375.168 540.748 377.338 539.414 374.5C538.08 371.661 550.253 354.798 566.595 359.64C566.595 359.64 567.095 373.999 558.257 379.675C549.419 385.519 545.251 375.168 545.251 375.168Z" fill="url(#paint5_linear)"/>
<path d="M545.251 375.168C545.251 375.168 540.748 377.338 539.414 374.5C538.08 371.661 550.253 354.798 566.595 359.64C566.595 359.64 567.095 373.999 558.257 379.675C549.419 385.519 545.251 375.168 545.251 375.168Z" fill="url(#paint6_linear)"/>
<path d="M517.993 418.806C517.993 418.806 521.494 415.967 517.659 414.632C513.824 413.296 495.481 413.63 495.314 431.996C495.314 431.996 516.825 435.502 519.493 428.656C521.995 421.644 517.993 418.806 517.993 418.806Z" fill="url(#paint7_linear)"/>
<path d="M517.993 418.806C517.993 418.806 521.494 415.967 517.659 414.632C513.824 413.296 495.481 413.63 495.314 431.996C495.314 431.996 516.825 435.502 519.493 428.656C521.995 421.644 517.993 418.806 517.993 418.806Z" fill="url(#paint8_linear)"/>
<path d="M562.135 385.484C562.135 385.484 557.823 384.178 560.874 381.493C563.925 378.808 581.045 372.191 588.107 389.133C588.107 389.133 569.497 400.503 564.45 395.172C559.278 389.532 562.135 385.484 562.135 385.484Z" fill="url(#paint9_linear)"/>
<path d="M562.135 385.484C562.135 385.484 557.823 384.178 560.874 381.493C563.925 378.808 581.045 372.191 588.107 389.133C588.107 389.133 569.497 400.503 564.45 395.172C559.278 389.532 562.135 385.484 562.135 385.484Z" fill="url(#paint10_linear)"/>
<path d="M551.778 396.029C551.778 396.029 551.444 392.69 554.279 394.026C557.114 395.362 566.619 405.713 556.614 415.564C556.614 415.564 543.274 405.546 545.608 400.37C548.109 395.195 551.778 396.029 551.778 396.029Z" fill="url(#paint11_linear)"/>
<path d="M551.778 396.029C551.778 396.029 551.444 392.69 554.279 394.026C557.114 395.362 566.619 405.713 556.614 415.564C556.614 415.564 543.274 405.546 545.608 400.37C548.109 395.195 551.778 396.029 551.778 396.029Z" fill="url(#paint12_linear)"/>
<path d="M516.262 400.871C516.262 400.871 518.263 398.2 515.261 397.866C512.26 397.532 498.586 401.205 501.754 414.896C501.754 414.896 518.429 413.727 519.096 408.05C519.763 402.207 516.262 400.871 516.262 400.871Z" fill="url(#paint13_linear)"/>
<path d="M516.262 400.871C516.262 400.871 518.263 398.2 515.261 397.866C512.26 397.532 498.586 401.205 501.754 414.896C501.754 414.896 518.429 413.727 519.096 408.05C519.763 402.207 516.262 400.871 516.262 400.871Z" fill="url(#paint14_linear)"/>
<path d="M572.456 528.429H515.428L509.258 465.986H578.626L572.456 528.429Z" fill="#9FDDFF"/>
<path d="M581.794 458.973H506.256V472.831H581.794V458.973Z" fill="#64D0FF"/>
<path d="M660 120.378V265.967C660 268.138 658.333 269.808 656.165 269.808H477.742C475.574 269.808 473.906 268.138 473.906 265.967V120.378C473.906 118.208 475.574 116.538 477.742 116.538H656.165C658.333 116.538 660 118.208 660 120.378Z" fill="#F6F5FF"/>
<path d="M656.164 132.065H478.074V265.3H656.164V132.065Z" fill="url(#paint15_linear)"/>
<path opacity="0.5" d="M492.415 148.761C492.582 148.928 492.915 148.928 493.082 148.928C493.415 148.928 493.916 148.761 494.082 148.428C494.416 147.927 494.416 147.092 493.749 146.758L490.08 144.087L493.749 141.415C494.249 141.081 494.416 140.246 494.082 139.746C493.749 139.245 492.915 139.078 492.415 139.412L487.412 143.085C487.079 143.252 486.912 143.753 486.912 144.087C486.912 144.421 487.079 144.921 487.412 145.088L492.415 148.761Z" fill="white"/>
<path opacity="0.5" d="M509.424 143.92L505.756 146.591C505.255 146.925 505.089 147.76 505.422 148.261C505.589 148.594 506.089 148.761 506.423 148.761C506.756 148.761 506.923 148.761 507.09 148.594L512.092 144.921C512.426 144.754 512.593 144.254 512.593 143.92C512.593 143.586 512.426 143.085 512.092 142.918L507.09 139.245C506.589 138.911 505.756 138.911 505.422 139.579C505.089 140.08 505.089 140.914 505.756 141.248L509.424 143.92Z" fill="white"/>
<path opacity="0.5" d="M498.085 148.928C498.252 148.928 498.419 148.928 498.585 148.928C499.086 148.928 499.586 148.594 499.753 148.094L502.421 140.58C502.587 139.913 502.254 139.245 501.587 138.911C500.92 138.744 500.253 139.078 499.919 139.746L497.251 147.259C497.085 147.927 497.418 148.594 498.085 148.928Z" fill="white"/>
<path opacity="0.5" d="M518.929 149.429H525.599C526.6 149.429 527.267 148.761 527.267 147.76C527.267 146.758 526.6 146.09 525.599 146.09H518.929C517.929 146.09 517.262 146.758 517.262 147.76C517.262 148.594 518.095 149.429 518.929 149.429Z" fill="white"/>
<path opacity="0.5" d="M625.816 243.762H545.442H534.103H522.597C521.597 243.762 520.93 244.43 520.93 245.431C520.93 246.433 521.597 247.101 522.597 247.101H534.103H545.442H625.816C626.817 247.101 627.484 246.433 627.484 245.431C627.484 244.597 626.65 243.762 625.816 243.762Z" fill="white"/>
<path d="M648.495 243.762H635.822C634.821 243.762 634.154 244.43 634.154 245.431C634.154 246.433 634.821 247.101 635.822 247.101H648.495C649.495 247.101 650.162 246.433 650.162 245.431C650.162 244.597 649.329 243.762 648.495 243.762Z" fill="white"/>
<path d="M553.779 236.582H595.3C596.3 236.582 596.967 235.915 596.967 234.913C596.967 233.911 596.3 233.243 595.3 233.243H553.779C552.778 233.243 552.111 233.911 552.111 234.913C552.111 235.748 552.778 236.582 553.779 236.582Z" fill="white"/>
<path opacity="0.5" d="M625.816 236.582C626.817 236.582 627.484 235.915 627.484 234.913C627.484 233.911 626.817 233.243 625.816 233.243H602.304C601.304 233.243 600.637 233.911 600.637 234.913C600.637 235.915 601.304 236.582 602.304 236.582H625.816Z" fill="white"/>
<path opacity="0.5" d="M648.494 233.243H635.988C634.987 233.243 634.32 233.911 634.32 234.913C634.32 235.915 634.987 236.582 635.988 236.582H648.494C649.495 236.582 650.162 235.915 650.162 234.913C650.162 233.911 649.328 233.243 648.494 233.243Z" fill="white"/>
<path d="M625.983 222.725H570.455C569.454 222.725 568.787 223.393 568.787 224.394C568.787 225.396 569.454 226.064 570.455 226.064H625.983C626.983 226.064 627.65 225.396 627.65 224.394C627.65 223.393 626.816 222.725 625.983 222.725Z" fill="white"/>
<path d="M648.495 222.725H635.822C634.821 222.725 634.154 223.393 634.154 224.394C634.154 225.396 634.821 226.064 635.822 226.064H648.495C649.495 226.064 650.162 225.396 650.162 224.394C650.162 223.393 649.329 222.725 648.495 222.725Z" fill="white"/>
<path opacity="0.5" d="M595.302 213.709C595.302 212.707 594.635 212.039 593.634 212.039H536.939C535.938 212.039 535.271 212.707 535.271 213.709C535.271 214.711 535.938 215.379 536.939 215.379H593.634C594.635 215.379 595.302 214.711 595.302 213.709Z" fill="white"/>
<path opacity="0.5" d="M603.972 212.039C602.972 212.039 602.305 212.707 602.305 213.709C602.305 214.711 602.972 215.379 603.972 215.379H625.983C626.984 215.379 627.651 214.711 627.651 213.709C627.651 212.707 626.984 212.039 625.983 212.039H603.972Z" fill="white"/>
<path d="M648.494 212.039H635.988C634.987 212.039 634.32 212.707 634.32 213.709C634.32 214.711 634.987 215.379 635.988 215.379H648.494C649.495 215.379 650.162 214.711 650.162 213.709C650.162 212.874 649.328 212.039 648.494 212.039Z" fill="white"/>
<path d="M607.14 204.86H617.979C618.979 204.86 619.646 204.192 619.646 203.19C619.646 202.189 618.979 201.521 617.979 201.521H607.14C606.14 201.521 605.473 202.189 605.473 203.19C605.473 204.192 606.14 204.86 607.14 204.86Z" fill="white"/>
<path opacity="0.5" d="M625.816 204.86H648.494C649.495 204.86 650.162 204.192 650.162 203.19C650.162 202.189 649.495 201.521 648.494 201.521H625.816C624.815 201.521 624.148 202.189 624.148 203.19C624.148 204.192 624.815 204.86 625.816 204.86Z" fill="white"/>
<path d="M545.943 192.672C545.943 191.67 545.276 191.002 544.275 191.002H487.08C486.079 191.002 485.412 191.67 485.412 192.672C485.412 193.674 486.079 194.342 487.08 194.342H544.275C545.109 194.342 545.943 193.507 545.943 192.672Z" fill="white"/>
<path opacity="0.5" d="M553.279 194.342H570.121C571.121 194.342 571.788 193.674 571.788 192.672C571.788 191.67 571.121 191.002 570.121 191.002H553.279C552.278 191.002 551.611 191.67 551.611 192.672C551.611 193.507 552.278 194.342 553.279 194.342Z" fill="white"/>
<path opacity="0.5" d="M487.08 183.656H508.757C509.758 183.656 510.425 182.988 510.425 181.987C510.425 180.985 509.758 180.317 508.757 180.317H487.08C486.079 180.317 485.412 180.985 485.412 181.987C485.412 182.988 486.079 183.656 487.08 183.656Z" fill="white"/>
<path d="M588.464 181.987C588.464 180.985 587.797 180.317 586.797 180.317H519.429C518.429 180.317 517.762 180.985 517.762 181.987C517.762 182.988 518.429 183.656 519.429 183.656H586.797C587.63 183.656 588.464 182.988 588.464 181.987Z" fill="white"/>
<path d="M487.08 173.138H526.433C527.433 173.138 528.1 172.47 528.1 171.468C528.1 170.466 527.433 169.798 526.433 169.798H487.08C486.079 169.798 485.412 170.466 485.412 171.468C485.412 172.47 486.079 173.138 487.08 173.138Z" fill="white"/>
<path opacity="0.5" d="M533.604 171.468C533.604 172.47 534.271 173.138 535.271 173.138H544.943C545.943 173.138 546.61 172.47 546.61 171.468C546.61 170.466 545.943 169.798 544.943 169.798H535.271C534.437 169.798 533.604 170.633 533.604 171.468Z" fill="white"/>
<path opacity="0.5" d="M487.08 162.619H533.436C534.437 162.619 535.104 161.951 535.104 160.95C535.104 159.948 534.437 159.28 533.436 159.28H487.08C486.079 159.28 485.412 159.948 485.412 160.95C485.412 161.784 486.079 162.619 487.08 162.619Z" fill="white"/>
<path d="M567.787 162.619H603.305C604.305 162.619 604.972 161.951 604.972 160.95C604.972 159.948 604.305 159.28 603.305 159.28H567.787C566.786 159.28 566.119 159.948 566.119 160.95C566.119 161.784 566.953 162.619 567.787 162.619Z" fill="white"/>
<path opacity="0.2" d="M580.626 116.538V158.111C580.626 162.786 576.958 166.459 572.289 166.459H474.072V120.378C474.072 118.208 475.74 116.538 477.908 116.538H580.626Z" fill="#5252A0"/>
<path d="M571.79 3.84008V149.429C571.79 151.6 570.122 153.269 567.955 153.269H366.353C364.185 153.269 362.518 151.6 362.518 149.429V3.84008C362.518 1.6696 364.185 0 366.353 0H567.955C570.122 0 571.79 1.6696 571.79 3.84008Z" fill="#F6F5FF"/>
<path d="M567.789 15.5273H366.354V148.761H567.789V15.5273Z" fill="url(#paint16_linear)"/>
<path d="M380.86 32.2233C381.027 32.3903 381.36 32.3903 381.527 32.3903C381.861 32.3903 382.361 32.2233 382.528 31.8894C382.861 31.3885 382.861 30.5537 382.194 30.2198L378.526 27.5484L382.194 24.8771C382.694 24.5432 382.861 23.7084 382.528 23.2075C382.194 22.7066 381.36 22.5396 380.86 22.8736L375.858 26.5467C375.524 26.7136 375.357 27.2145 375.357 27.5484C375.357 27.8824 375.524 28.3832 375.858 28.5502L380.86 32.2233Z" fill="white"/>
<path d="M397.868 27.3815L394.199 30.0528C393.699 30.3867 393.532 31.2215 393.866 31.7224C394.032 32.0563 394.533 32.2233 394.866 32.2233C395.2 32.2233 395.366 32.2233 395.533 32.0563L400.536 28.3832C400.869 28.2163 401.036 27.7154 401.036 27.3815C401.036 27.0475 400.869 26.5467 400.536 26.3797L395.533 22.7066C395.033 22.3727 394.199 22.3727 393.866 23.0405C393.532 23.5414 393.532 24.3762 394.199 24.7101L397.868 27.3815Z" fill="white"/>
<path d="M386.529 32.3903C386.695 32.3903 386.862 32.3903 387.029 32.3903C387.529 32.3903 388.029 32.0564 388.196 31.5555L390.864 24.0423C391.031 23.3744 390.697 22.7066 390.03 22.3727C389.363 22.2057 388.696 22.5396 388.363 23.2075L385.695 30.7207C385.528 31.3885 385.862 32.0564 386.529 32.3903Z" fill="white"/>
<path opacity="0.5" d="M407.373 32.8912H414.043C415.043 32.8912 415.71 32.2234 415.71 31.2216C415.71 30.2198 415.043 29.552 414.043 29.552H407.373C406.372 29.552 405.705 30.2198 405.705 31.2216C405.705 32.0564 406.539 32.8912 407.373 32.8912Z" fill="white"/>
<path opacity="0.5" d="M492.916 46.081H501.753C502.754 46.081 503.421 45.4132 503.421 44.4114C503.421 43.4097 502.754 42.7418 501.753 42.7418H492.916C491.915 42.7418 491.248 43.4097 491.248 44.4114C491.248 45.4132 492.082 46.081 492.916 46.081Z" fill="white"/>
<path d="M396.367 44.4114C396.367 45.4132 397.034 46.081 398.035 46.081H481.41C482.411 46.081 483.078 45.4132 483.078 44.4114C483.078 43.4097 482.411 42.7418 481.41 42.7418H398.035C397.201 42.7418 396.367 43.5766 396.367 44.4114Z" fill="white"/>
<path opacity="0.5" d="M375.357 46.081H388.03C389.031 46.081 389.698 45.4132 389.698 44.4114C389.698 43.4097 389.031 42.7418 388.03 42.7418H375.357C374.356 42.7418 373.689 43.4097 373.689 44.4114C373.689 45.4132 374.523 46.081 375.357 46.081Z" fill="white"/>
<path d="M461.9 56.5995C462.901 56.5995 463.568 55.9317 463.568 54.9299C463.568 53.9282 462.901 53.2603 461.9 53.2603H428.55C427.55 53.2603 426.883 53.9282 426.883 54.9299C426.883 55.9317 427.55 56.5995 428.55 56.5995H461.9Z" fill="white"/>
<path d="M398.035 56.5995H421.547C422.547 56.5995 423.214 55.9317 423.214 54.9299C423.214 53.9282 422.547 53.2603 421.547 53.2603H398.035C397.034 53.2603 396.367 53.9282 396.367 54.9299C396.367 55.9317 397.201 56.5995 398.035 56.5995Z" fill="white"/>
<path opacity="0.5" d="M375.357 56.5995H387.863C388.864 56.5995 389.531 55.9317 389.531 54.9299C389.531 53.9282 388.864 53.2603 387.863 53.2603H375.357C374.356 53.2603 373.689 53.9282 373.689 54.9299C373.689 55.9317 374.523 56.5995 375.357 56.5995Z" fill="white"/>
<path d="M446.893 65.6153C446.893 64.6136 446.226 63.9457 445.225 63.9457H398.035C397.034 63.9457 396.367 64.6136 396.367 65.6153C396.367 66.6171 397.034 67.285 398.035 67.285H445.225C446.059 67.285 446.893 66.4501 446.893 65.6153Z" fill="white"/>
<path opacity="0.5" d="M375.357 67.285H388.03C389.031 67.285 389.698 66.6171 389.698 65.6153C389.698 64.6136 389.031 63.9457 388.03 63.9457H375.357C374.356 63.9457 373.689 64.6136 373.689 65.6153C373.689 66.4501 374.523 67.285 375.357 67.285Z" fill="white"/>
<path d="M430.218 77.8034H478.576C479.577 77.8034 480.244 77.1356 480.244 76.1338C480.244 75.1321 479.577 74.4642 478.576 74.4642H430.218C429.218 74.4642 428.551 75.1321 428.551 76.1338C428.551 76.9686 429.218 77.8034 430.218 77.8034Z" fill="white"/>
<path d="M398.035 74.4642C397.034 74.4642 396.367 75.1321 396.367 76.1338C396.367 77.1356 397.034 77.8034 398.035 77.8034H420.046C421.046 77.8034 421.713 77.1356 421.713 76.1338C421.713 75.1321 421.046 74.4642 420.046 74.4642H398.035Z" fill="white"/>
<path opacity="0.5" d="M375.357 77.8034H387.863C388.864 77.8034 389.531 77.1356 389.531 76.1338C389.531 75.1321 388.864 74.4642 387.863 74.4642H375.357C374.356 74.4642 373.689 75.1321 373.689 76.1338C373.689 76.9686 374.523 77.8034 375.357 77.8034Z" fill="white"/>
<path d="M416.877 84.9827H406.039C405.038 84.9827 404.371 85.6506 404.371 86.6523C404.371 87.6541 405.038 88.3219 406.039 88.3219H416.877C417.878 88.3219 418.545 87.6541 418.545 86.6523C418.545 85.8175 417.711 84.9827 416.877 84.9827Z" fill="white"/>
<path d="M398.201 84.9827H375.523C374.522 84.9827 373.855 85.6506 373.855 86.6523C373.855 87.6541 374.522 88.3219 375.523 88.3219H398.201C399.202 88.3219 399.869 87.6541 399.869 86.6523C399.869 85.8175 399.035 84.9827 398.201 84.9827Z" fill="white"/>
<path d="M469.57 97.3378C469.57 98.3395 470.237 99.0074 471.238 99.0074H560.283C561.283 99.0074 561.95 98.3395 561.95 97.3378C561.95 96.336 561.283 95.6682 560.283 95.6682H471.405C470.404 95.6682 469.57 96.336 469.57 97.3378Z" fill="white"/>
<path opacity="0.5" d="M445.392 95.6682C444.392 95.6682 443.725 96.336 443.725 97.3378C443.725 98.3395 444.392 99.0074 445.392 99.0074H462.234C463.234 99.0074 463.901 98.3395 463.901 97.3378C463.901 96.336 463.234 95.6682 462.234 95.6682H445.392Z" fill="white"/>
<path opacity="0.5" d="M560.285 106.187H538.607C537.606 106.187 536.939 106.854 536.939 107.856C536.939 108.858 537.606 109.526 538.607 109.526H560.285C561.285 109.526 561.952 108.858 561.952 107.856C561.952 106.854 561.118 106.187 560.285 106.187Z" fill="white"/>
<path d="M529.434 107.856C529.434 106.854 528.767 106.187 527.767 106.187H437.054C436.054 106.187 435.387 106.854 435.387 107.856C435.387 108.858 436.054 109.526 437.054 109.526H527.767C528.767 109.526 529.434 108.691 529.434 107.856Z" fill="white"/>
<path d="M560.284 116.705H520.931C519.931 116.705 519.264 117.373 519.264 118.375C519.264 119.377 519.931 120.044 520.931 120.044H560.284C561.285 120.044 561.952 119.377 561.952 118.375C561.952 117.54 561.118 116.705 560.284 116.705Z" fill="white"/>
<path opacity="0.5" d="M502.087 116.705C501.087 116.705 500.42 117.373 500.42 118.375C500.42 119.377 501.087 120.044 502.087 120.044H511.759C512.76 120.044 513.427 119.377 513.427 118.375C513.427 117.373 512.76 116.705 511.759 116.705H502.087Z" fill="white"/>
<path d="M560.283 127.224H482.244C481.243 127.224 480.576 127.891 480.576 128.893C480.576 129.895 481.243 130.563 482.244 130.563H560.283C561.284 130.563 561.951 129.895 561.951 128.893C561.951 128.058 561.117 127.224 560.283 127.224Z" fill="white"/>
<path d="M447.727 127.224H420.546C419.546 127.224 418.879 127.891 418.879 128.893C418.879 129.895 419.546 130.563 420.546 130.563H447.727C448.727 130.563 449.394 129.895 449.394 128.893C449.394 128.058 448.561 127.224 447.727 127.224Z" fill="white"/>
<path opacity="0.2" d="M474.074 65.9492V153.269H366.353C364.185 153.269 362.518 151.6 362.518 149.429V58.436H466.737C470.739 58.436 474.074 61.7752 474.074 65.9492Z" fill="#5252A0"/>
<path d="M456.397 218.05H223.113C220.945 218.05 219.277 216.38 219.277 214.21V68.7876C219.277 66.6171 220.945 64.9475 223.113 64.9475H456.397C458.565 64.9475 460.232 66.6171 460.232 68.7876V214.377C460.232 216.38 458.565 218.05 456.397 218.05Z" fill="#F6F5FF"/>
<path d="M456.397 80.4748H223.279V213.709H456.397V80.4748Z" fill="url(#paint17_linear)"/>
<path d="M269.637 108.524H232.285C231.284 108.524 230.617 109.192 230.617 110.194C230.617 111.195 231.284 111.863 232.285 111.863H269.637C270.637 111.863 271.304 111.195 271.304 110.194C271.304 109.192 270.471 108.524 269.637 108.524Z" fill="white"/>
<path d="M269.636 118.876H237.287C236.286 118.876 235.619 119.543 235.619 120.545C235.619 121.547 236.286 122.215 237.287 122.215H269.636C270.637 122.215 271.304 121.547 271.304 120.545C271.304 119.71 270.47 118.876 269.636 118.876Z" fill="white"/>
<path opacity="0.5" d="M269.637 129.394H232.285C231.284 129.394 230.617 130.062 230.617 131.064C230.617 132.065 231.284 132.733 232.285 132.733H269.637C270.637 132.733 271.304 132.065 271.304 131.064C271.304 130.062 270.471 129.394 269.637 129.394Z" fill="white"/>
<path d="M269.637 139.746H247.293C246.292 139.746 245.625 140.413 245.625 141.415C245.625 142.417 246.292 143.085 247.293 143.085H269.637C270.638 143.085 271.305 142.417 271.305 141.415C271.305 140.413 270.471 139.746 269.637 139.746Z" fill="white"/>
<path d="M269.637 150.097H232.285C231.284 150.097 230.617 150.765 230.617 151.767C230.617 152.769 231.284 153.436 232.285 153.436H269.637C270.637 153.436 271.304 152.769 271.304 151.767C271.304 150.932 270.471 150.097 269.637 150.097Z" fill="white"/>
<path d="M269.637 160.616H238.955C237.954 160.616 237.287 161.283 237.287 162.285C237.287 163.287 237.954 163.955 238.955 163.955H269.637C270.637 163.955 271.304 163.287 271.304 162.285C271.304 161.283 270.471 160.616 269.637 160.616Z" fill="white"/>
<path d="M269.637 170.967H238.955C237.954 170.967 237.287 171.635 237.287 172.637C237.287 173.639 237.954 174.306 238.955 174.306H269.637C270.637 174.306 271.304 173.639 271.304 172.637C271.304 171.802 270.471 170.967 269.637 170.967Z" fill="white"/>
<path d="M269.636 181.486H235.619C234.618 181.486 233.951 182.153 233.951 183.155C233.951 184.157 234.618 184.825 235.619 184.825H269.636C270.636 184.825 271.303 184.157 271.303 183.155C271.303 182.153 270.47 181.486 269.636 181.486Z" fill="white"/>
<path opacity="0.5" d="M269.637 191.837H247.293C246.292 191.837 245.625 192.505 245.625 193.507C245.625 194.508 246.292 195.176 247.293 195.176H269.637C270.638 195.176 271.305 194.508 271.305 193.507C271.305 192.505 270.471 191.837 269.637 191.837Z" fill="white"/>
<path opacity="0.5" d="M269.638 98.0056H242.291C241.29 98.0056 240.623 98.6735 240.623 99.6752C240.623 100.677 241.29 101.345 242.291 101.345H269.638C270.638 101.345 271.305 100.677 271.305 99.6752C271.305 98.8404 270.471 98.0056 269.638 98.0056Z" fill="white"/>
<path d="M269.637 87.6533H232.285C231.284 87.6533 230.617 88.3211 230.617 89.3229C230.617 90.3246 231.284 90.9925 232.285 90.9925H269.637C270.637 90.9925 271.304 90.3246 271.304 89.3229C271.304 88.3211 270.471 87.6533 269.637 87.6533Z" fill="white"/>
<path d="M269.637 202.189H232.285C231.284 202.189 230.617 202.857 230.617 203.858C230.617 204.86 231.284 205.528 232.285 205.528H269.637C270.637 205.528 271.304 204.86 271.304 203.858C271.304 203.024 270.471 202.189 269.637 202.189Z" fill="white"/>
<path opacity="0.5" d="M289.648 108.023H282.311V112.197H289.648V108.023Z" fill="white"/>
<path opacity="0.5" d="M289.648 118.542H282.311V122.716H289.648V118.542Z" fill="white"/>
<path opacity="0.5" d="M289.648 128.893H282.311V133.067H289.648V128.893Z" fill="white"/>
<path opacity="0.5" d="M289.648 139.245H282.311V143.419H289.648V139.245Z" fill="white"/>
<path opacity="0.5" d="M289.648 149.763H282.311V153.937H289.648V149.763Z" fill="white"/>
<path opacity="0.5" d="M289.648 160.115H282.311V164.289H289.648V160.115Z" fill="white"/>
<path opacity="0.5" d="M289.648 170.633H282.311V174.807H289.648V170.633Z" fill="white"/>
<path opacity="0.5" d="M289.648 180.985H282.311V185.159H289.648V180.985Z" fill="white"/>
<path opacity="0.5" d="M289.648 191.336H282.311V195.51H289.648V191.336Z" fill="white"/>
<path opacity="0.5" d="M289.648 97.6717H282.311V101.846H289.648V97.6717Z" fill="white"/>
<path opacity="0.5" d="M289.648 87.1532H282.311V91.3272H289.648V87.1532Z" fill="white"/>
<path opacity="0.5" d="M289.648 201.855H282.311V206.029H289.648V201.855Z" fill="white"/>
<path d="M327.332 110.194C327.332 111.195 327.999 111.863 329 111.863H449.727C450.728 111.863 451.395 111.195 451.395 110.194C451.395 109.192 450.728 108.524 449.727 108.524H329C327.999 108.524 327.332 109.192 327.332 110.194Z" fill="white"/>
<path d="M449.727 118.876H383.527C382.526 118.876 381.859 119.543 381.859 120.545C381.859 121.547 382.526 122.215 383.527 122.215H449.56C450.561 122.215 451.228 121.547 451.228 120.545C451.395 119.71 450.561 118.876 449.727 118.876Z" fill="white"/>
<path opacity="0.5" d="M367.854 118.876H347.343C346.343 118.876 345.676 119.543 345.676 120.545C345.676 121.547 346.343 122.215 347.343 122.215H367.854C368.854 122.215 369.521 121.547 369.521 120.545C369.521 119.71 368.854 118.876 367.854 118.876Z" fill="white"/>
<path d="M409.707 129.394H317.994C316.993 129.394 316.326 130.062 316.326 131.064C316.326 132.065 316.993 132.733 317.994 132.733H409.707C410.707 132.733 411.374 132.065 411.374 131.064C411.374 130.062 410.54 129.394 409.707 129.394Z" fill="white"/>
<path opacity="0.5" d="M298.984 132.733H305.487C306.488 132.733 307.155 132.065 307.155 131.064C307.155 130.062 306.488 129.394 305.487 129.394H298.984C297.983 129.394 297.316 130.062 297.316 131.064C297.316 132.065 297.983 132.733 298.984 132.733Z" fill="white"/>
<path d="M421.38 141.415C421.38 140.413 420.713 139.746 419.712 139.746H334.669C333.669 139.746 333.002 140.413 333.002 141.415C333.002 142.417 333.669 143.085 334.669 143.085H419.712C420.546 143.085 421.38 142.25 421.38 141.415Z" fill="white"/>
<path d="M298.984 143.085H322.996C323.996 143.085 324.663 142.417 324.663 141.415C324.663 140.413 323.996 139.746 322.996 139.746H298.984C297.983 139.746 297.316 140.413 297.316 141.415C297.316 142.25 297.983 143.085 298.984 143.085Z" fill="white"/>
<path d="M298.984 153.436H389.696C390.697 153.436 391.364 152.769 391.364 151.767C391.364 150.765 390.697 150.097 389.696 150.097H298.984C297.983 150.097 297.316 150.765 297.316 151.767C297.316 152.769 297.983 153.436 298.984 153.436Z" fill="white"/>
<path d="M357.681 160.616C356.681 160.616 356.014 161.283 356.014 162.285C356.014 163.287 356.681 163.955 357.681 163.955H404.705C405.705 163.955 406.372 163.287 406.372 162.285C406.372 161.283 405.705 160.616 404.705 160.616H357.681Z" fill="white"/>
<path d="M298.984 163.955H339.671C340.672 163.955 341.339 163.287 341.339 162.285C341.339 161.283 340.672 160.616 339.671 160.616H298.984C297.983 160.616 297.316 161.283 297.316 162.285C297.316 163.12 297.983 163.955 298.984 163.955Z" fill="white"/>
<path d="M449.728 170.967H339.005C338.005 170.967 337.338 171.635 337.338 172.637C337.338 173.639 338.005 174.306 339.005 174.306H449.728C450.728 174.306 451.395 173.639 451.395 172.637C451.395 171.802 450.562 170.967 449.728 170.967Z" fill="white"/>
<path d="M449.728 181.486H354.013C353.013 181.486 352.346 182.153 352.346 183.155C352.346 184.157 353.013 184.825 354.013 184.825H449.728C450.729 184.825 451.396 184.157 451.396 183.155C451.396 182.153 450.562 181.486 449.728 181.486Z" fill="white"/>
<path opacity="0.5" d="M449.727 191.837H430.05C429.05 191.837 428.383 192.505 428.383 193.507C428.383 194.508 429.05 195.176 430.05 195.176H449.727C450.727 195.176 451.394 194.508 451.394 193.507C451.394 192.505 450.561 191.837 449.727 191.837Z" fill="white"/>
<path d="M416.211 191.837H344.007C343.007 191.837 342.34 192.505 342.34 193.507C342.34 194.508 343.007 195.176 344.007 195.176H416.211C417.211 195.176 417.878 194.508 417.878 193.507C417.878 192.505 417.211 191.837 416.211 191.837Z" fill="white"/>
<path d="M298.984 101.345H376.356C377.357 101.345 378.024 100.677 378.024 99.6752C378.024 98.6735 377.357 98.0056 376.356 98.0056H298.984C297.983 98.0056 297.316 98.6735 297.316 99.6752C297.316 100.677 297.983 101.345 298.984 101.345Z" fill="white"/>
<path d="M298.984 90.9933H419.711C420.712 90.9933 421.379 90.3254 421.379 89.3237C421.379 88.3219 420.712 87.6541 419.711 87.6541H298.984C297.983 87.6541 297.316 88.3219 297.316 89.3237C297.316 90.3254 297.983 90.9933 298.984 90.9933Z" fill="white"/>
<path d="M411.376 202.189H360.183C359.183 202.189 358.516 202.857 358.516 203.858C358.516 204.86 359.183 205.528 360.183 205.528H411.376C412.376 205.528 413.043 204.86 413.043 203.858C413.043 203.024 412.209 202.189 411.376 202.189Z" fill="white"/>
<path opacity="0.5" d="M345.507 202.189H298.984C297.983 202.189 297.316 202.857 297.316 203.858C297.316 204.86 297.983 205.528 298.984 205.528H345.507C346.508 205.528 347.175 204.86 347.175 203.858C347.175 203.024 346.508 202.189 345.507 202.189Z" fill="white"/>
<path opacity="0.5" d="M393.366 101.345C394.366 101.345 395.033 100.677 395.033 99.6752C395.033 98.6735 394.366 98.0056 393.366 98.0056H387.363C386.362 98.0056 385.695 98.6735 385.695 99.6752C385.695 100.677 386.362 101.345 387.363 101.345H393.366Z" fill="white"/>
<path opacity="0.5" d="M320.329 110.194C320.329 109.192 319.662 108.524 318.662 108.524H310.658C309.657 108.524 308.99 109.192 308.99 110.194C308.99 111.195 309.657 111.863 310.658 111.863H318.662C319.662 111.863 320.329 111.028 320.329 110.194Z" fill="white"/>
<path opacity="0.5" d="M412.376 151.767C412.376 150.765 411.709 150.097 410.708 150.097H401.871C400.87 150.097 400.203 150.765 400.203 151.767C400.203 152.769 400.87 153.436 401.871 153.436H410.708C411.542 153.436 412.376 152.769 412.376 151.767Z" fill="white"/>
<path opacity="0.5" d="M441.225 143.085C442.225 143.085 442.892 142.417 442.892 141.415C442.892 140.413 442.225 139.746 441.225 139.746H434.054C433.054 139.746 432.387 140.413 432.387 141.415C432.387 142.417 433.054 143.085 434.054 143.085H441.225Z" fill="white"/>
<path opacity="0.5" d="M325.498 170.967C324.497 170.967 323.83 171.635 323.83 172.637C323.83 173.639 324.497 174.306 325.498 174.306H332.668C333.668 174.306 334.335 173.639 334.335 172.637C334.335 171.635 333.668 170.967 332.668 170.967H325.498Z" fill="white"/>
<path d="M146.072 147.092H91.0445C87.8763 147.092 85.375 149.596 85.375 152.768V182.654C85.375 185.827 87.8763 188.331 91.0445 188.331H129.397C130.898 191.837 135.067 198.849 145.906 202.189C145.906 202.189 139.402 196.345 139.736 188.331H146.239C149.407 188.331 151.909 185.827 151.909 182.654V152.768C151.742 149.763 149.241 147.092 146.072 147.092Z" fill="url(#paint18_linear)"/>
<path d="M94.0455 153.603V160.449H93.3784V154.104H91.7109V153.603H94.0455Z" fill="white"/>
<path d="M95.7129 157.109C95.7129 154.939 96.8801 153.603 98.5477 153.603C100.215 153.603 101.382 154.939 101.382 157.109C101.382 159.28 100.048 160.616 98.3809 160.616C96.8801 160.616 95.7129 159.28 95.7129 157.109ZM100.382 157.109C100.382 155.273 99.5482 154.271 98.3809 154.271C97.2136 154.271 96.3799 155.273 96.3799 157.109C96.3799 158.946 97.2136 159.948 98.3809 159.948C99.5482 159.948 100.382 158.946 100.382 157.109Z" fill="white"/>
<path d="M102.217 157.109C102.217 154.939 103.384 153.603 105.052 153.603C106.719 153.603 107.886 154.939 107.886 157.109C107.886 159.28 106.719 160.616 105.052 160.616C103.384 160.616 102.217 159.28 102.217 157.109ZM106.886 157.109C106.886 155.273 106.052 154.271 104.885 154.271C103.718 154.271 102.884 155.273 102.884 157.109C102.884 158.946 103.718 159.948 104.885 159.948C106.052 159.948 106.886 158.946 106.886 157.109Z" fill="white"/>
<path d="M110.553 153.603V160.449H109.886V154.104H108.219V153.603H110.553Z" fill="white"/>
<path d="M114.222 153.603V160.449H113.388V154.104H111.721V153.603H114.222Z" fill="white"/>
<path d="M115.889 157.109C115.889 154.939 117.056 153.603 118.723 153.603C120.391 153.603 121.558 154.939 121.558 157.109C121.558 159.28 120.391 160.616 118.723 160.616C116.889 160.616 115.889 159.28 115.889 157.109ZM120.558 157.109C120.558 155.273 119.724 154.271 118.557 154.271C117.389 154.271 116.556 155.273 116.556 157.109C116.556 158.946 117.389 159.948 118.557 159.948C119.724 159.948 120.558 158.946 120.558 157.109Z" fill="white"/>
<path d="M124.227 153.603V160.449H123.56V154.104H121.893V153.603H124.227Z" fill="white"/>
<path d="M125.895 157.109C125.895 154.939 127.062 153.603 128.729 153.603C130.397 153.603 131.564 154.939 131.564 157.109C131.564 159.28 130.397 160.616 128.729 160.616C127.062 160.616 125.895 159.28 125.895 157.109ZM130.73 157.109C130.73 155.273 129.897 154.271 128.729 154.271C127.562 154.271 126.728 155.273 126.728 157.109C126.728 158.946 127.562 159.948 128.729 159.948C129.897 159.948 130.73 158.946 130.73 157.109Z" fill="white"/>
<path d="M132.398 157.109C132.398 154.939 133.566 153.603 135.233 153.603C136.901 153.603 138.068 154.939 138.068 157.109C138.068 159.28 136.901 160.616 135.233 160.616C133.566 160.616 132.398 159.28 132.398 157.109ZM137.234 157.109C137.234 155.273 136.4 154.271 135.233 154.271C134.066 154.271 133.232 155.273 133.232 157.109C133.232 158.946 134.066 159.948 135.233 159.948C136.4 159.948 137.234 158.946 137.234 157.109Z" fill="white"/>
<path d="M140.904 153.603V160.449H140.07V154.104H138.402V153.603H140.904Z" fill="white"/>
<path d="M144.405 153.603V160.449H143.738V154.104H142.07V153.603H144.405Z" fill="white"/>
<path d="M92.0449 167.127C92.0449 164.957 93.2122 163.621 94.8797 163.621C96.5472 163.621 97.7144 164.957 97.7144 167.127C97.7144 169.297 96.5472 170.633 94.8797 170.633C93.2122 170.633 92.0449 169.297 92.0449 167.127ZM96.8807 167.127C96.8807 165.29 96.0469 164.289 94.8797 164.289C93.7124 164.289 92.8787 165.29 92.8787 167.127C92.8787 168.964 93.7124 169.965 94.8797 169.965C96.0469 169.965 96.8807 168.964 96.8807 167.127Z" fill="white"/>
<path d="M98.5488 167.127C98.5488 164.957 99.7161 163.621 101.384 163.621C103.051 163.621 104.218 164.957 104.218 167.127C104.218 169.297 103.051 170.633 101.384 170.633C99.7161 170.633 98.5488 169.297 98.5488 167.127ZM103.385 167.127C103.385 165.29 102.551 164.289 101.384 164.289C100.216 164.289 99.3826 165.29 99.3826 167.127C99.3826 168.964 100.216 169.965 101.384 169.965C102.551 169.965 103.385 168.964 103.385 167.127Z" fill="white"/>
<path d="M107.051 163.621V170.466H106.384V164.122H104.717V163.621H107.051Z" fill="white"/>
<path d="M110.553 163.621V170.466H109.886V164.122H108.219V163.621H110.553Z" fill="white"/>
<path d="M112.221 167.127C112.221 164.957 113.388 163.621 115.055 163.621C116.723 163.621 117.89 164.957 117.89 167.127C117.89 169.297 116.723 170.633 115.055 170.633C113.388 170.633 112.221 169.297 112.221 167.127ZM117.056 167.127C117.056 165.29 116.223 164.289 115.055 164.289C113.888 164.289 113.054 165.29 113.054 167.127C113.054 168.964 113.888 169.965 115.055 169.965C116.223 169.965 117.056 168.964 117.056 167.127Z" fill="white"/>
<path d="M120.727 163.621V170.466H120.06V164.122H118.393V163.621H120.727Z" fill="white"/>
<path d="M122.393 167.127C122.393 164.957 123.56 163.621 125.227 163.621C126.895 163.621 128.062 164.957 128.062 167.127C128.062 169.297 126.895 170.633 125.227 170.633C123.56 170.633 122.393 169.297 122.393 167.127ZM127.062 167.127C127.062 165.29 126.228 164.289 125.061 164.289C123.893 164.289 123.06 165.29 123.06 167.127C123.06 168.964 123.893 169.965 125.061 169.965C126.228 169.965 127.062 168.964 127.062 167.127Z" fill="white"/>
<path d="M128.896 167.127C128.896 164.957 130.064 163.621 131.731 163.621C133.399 163.621 134.566 164.957 134.566 167.127C134.566 169.297 133.399 170.633 131.731 170.633C130.064 170.633 128.896 169.297 128.896 167.127ZM133.565 167.127C133.565 165.29 132.732 164.289 131.564 164.289C130.397 164.289 129.563 165.29 129.563 167.127C129.563 168.964 130.397 169.965 131.564 169.965C132.898 169.965 133.565 168.964 133.565 167.127Z" fill="white"/>
<path d="M137.235 163.621V170.466H136.568V164.122H134.9V163.621H137.235Z" fill="white"/>
<path d="M140.904 163.621V170.466H140.07V164.122H138.402V163.621H140.904Z" fill="white"/>
<path d="M144.405 163.621V170.466H143.738V164.122H142.07V163.621H144.405Z" fill="white"/>
<path d="M94.0455 173.638V180.484H93.3784V174.139H91.7109V173.638H94.0455Z" fill="white"/>
<path d="M97.5474 173.638V180.484H96.8804V174.139H95.2129V173.638H97.5474Z" fill="white"/>
<path d="M99.2148 177.145C99.2148 174.974 100.382 173.638 102.05 173.638C103.717 173.638 104.884 174.974 104.884 177.145C104.884 179.315 103.717 180.651 102.05 180.651C100.382 180.651 99.2148 179.315 99.2148 177.145ZM104.051 177.145C104.051 175.308 103.217 174.306 102.05 174.306C100.882 174.306 100.049 175.308 100.049 177.145C100.049 178.981 100.882 179.983 102.05 179.983C103.217 179.983 104.051 178.981 104.051 177.145Z" fill="white"/>
<path d="M105.719 177.145C105.719 174.974 106.886 173.638 108.554 173.638C110.221 173.638 111.388 174.974 111.388 177.145C111.388 179.315 110.221 180.651 108.554 180.651C106.886 180.651 105.719 179.315 105.719 177.145ZM110.555 177.145C110.555 175.308 109.721 174.306 108.554 174.306C107.386 174.306 106.553 175.308 106.553 177.145C106.553 178.981 107.386 179.983 108.554 179.983C109.721 179.983 110.555 178.981 110.555 177.145Z" fill="white"/>
<path d="M114.222 173.638V180.484H113.388V174.139H111.721V173.638H114.222Z" fill="white"/>
<path d="M117.723 173.638V180.484H117.056V174.139H115.389V173.638H117.723Z" fill="white"/>
<path d="M119.393 177.145C119.393 174.974 120.56 173.638 122.227 173.638C123.895 173.638 125.062 174.974 125.062 177.145C125.062 179.315 123.895 180.651 122.227 180.651C120.56 180.651 119.393 179.315 119.393 177.145ZM124.228 177.145C124.228 175.308 123.395 174.306 122.227 174.306C121.06 174.306 120.226 175.308 120.226 177.145C120.226 178.981 121.06 179.983 122.227 179.983C123.395 179.983 124.228 178.981 124.228 177.145Z" fill="white"/>
<path d="M125.895 177.145C125.895 174.974 127.062 173.638 128.729 173.638C130.397 173.638 131.564 174.974 131.564 177.145C131.564 179.315 130.397 180.651 128.729 180.651C127.062 180.651 125.895 179.315 125.895 177.145ZM130.73 177.145C130.73 175.308 129.897 174.306 128.729 174.306C127.562 174.306 126.728 175.308 126.728 177.145C126.728 178.981 127.562 179.983 128.729 179.983C129.897 179.983 130.73 178.981 130.73 177.145Z" fill="white"/>
<path d="M134.399 173.638V180.484H133.732V174.139H132.064V173.638H134.399Z" fill="white"/>
<path d="M136.066 177.145C136.066 174.974 137.234 173.638 138.901 173.638C140.569 173.638 141.736 174.974 141.736 177.145C141.736 179.315 140.569 180.651 138.901 180.651C137.067 180.651 136.066 179.315 136.066 177.145ZM140.735 177.145C140.735 175.308 139.902 174.306 138.734 174.306C137.567 174.306 136.733 175.308 136.733 177.145C136.733 178.981 137.567 179.983 138.734 179.983C139.902 179.983 140.735 178.981 140.735 177.145Z" fill="white"/>
<path d="M144.405 173.638V180.484H143.738V174.139H142.07V173.638H144.405Z" fill="white"/>
<path d="M233.45 498.71L227.781 498.877L214.107 341.934H224.279L233.45 498.71Z" fill="#BDFFDE"/>
<path d="M56.5296 513.569L89.0461 510.397V464.65H101.886V510.397L134.569 513.569C137.737 513.903 140.239 516.575 140.239 519.914V524.756H96.7166H94.3821H50.6934V519.914C50.6934 516.575 53.1946 513.903 56.5296 513.569Z" fill="#003C5E"/>
<path d="M131.733 541.786C136.43 541.786 140.237 537.973 140.237 533.271C140.237 528.568 136.43 524.756 131.733 524.756C127.036 524.756 123.229 528.568 123.229 533.271C123.229 537.973 127.036 541.786 131.733 541.786Z" fill="#322A63"/>
<path d="M59.3637 541.786C64.0605 541.786 67.868 537.973 67.868 533.271C67.868 528.568 64.0605 524.756 59.3637 524.756C54.6669 524.756 50.8594 528.568 50.8594 533.271C50.8594 537.973 54.6669 541.786 59.3637 541.786Z" fill="#322A63"/>
<path d="M90.0458 487.69H100.718C104.553 487.69 107.555 484.518 107.555 480.845V430.256H83.209V480.845C83.209 484.685 86.2105 487.69 90.0458 487.69Z" fill="#0564A5"/>
<path d="M52.0268 327.409C52.0268 327.409 48.525 413.393 72.5371 428.253H45.0232C45.0232 428.253 23.8459 398.868 29.8489 327.409H52.0268Z" fill="#D2F7FF"/>
<path d="M149.909 416.232H44.1891C39.5201 416.232 35.8516 419.905 35.8516 424.58V434.931H158.247V424.58C158.247 420.072 154.578 416.232 149.909 416.232Z" fill="#97DEEF"/>
<path d="M159.914 425.581H34.0167C32.1824 425.581 30.6816 427.084 30.6816 428.921V431.592C30.6816 433.428 32.1824 434.931 34.0167 434.931H159.914C161.748 434.931 163.249 433.428 163.249 431.592V428.921C163.249 427.084 161.748 425.581 159.914 425.581Z" fill="#E9FAFF"/>
<path d="M24.3456 344.94H65.8666C79.3734 344.94 90.2122 334.087 90.2122 320.563V305.704C90.2122 292.18 79.3734 281.328 65.8666 281.328H24.3456C10.8388 281.328 0 292.18 0 305.704V320.563C0 333.92 10.8388 344.94 24.3456 344.94Z" fill="#E9FAFF"/>
<path class="animation-cercel-2" d="M169.086 551.636L182.259 549.132L182.426 517.409L169.253 519.914L169.086 551.636Z" fill="#EBB376"/>
<path d="M144.24 379.333L140.905 358.964L66.3672 354.456C66.3672 354.456 58.5299 396.697 64.5329 408.05C75.3717 428.253 144.907 426.249 162.082 428.253C153.578 476.838 165.25 532.77 165.25 532.77H187.262C187.262 532.77 196.933 462.313 200.768 420.406C203.436 392.022 168.252 387.848 144.24 379.333Z" fill="#0564A5"/>
<path d="M222.947 543.288L233.952 541.118L232.618 509.562L221.779 511.9L222.947 543.288Z" fill="#EBB376"/>
<path d="M236.953 538.78C237.12 538.947 237.12 538.947 237.12 538.78C238.287 539.114 239.454 539.281 240.622 539.281C241.455 539.448 242.456 539.114 243.123 538.613C243.623 538.112 243.79 537.445 243.456 536.944C243.456 536.61 243.123 536.276 242.789 536.109C241.956 535.775 240.455 536.443 239.121 537.111C239.955 536.109 240.455 534.773 240.288 533.938C240.121 533.437 239.788 532.937 239.121 532.937C238.621 532.937 238.12 533.104 237.787 533.437C236.453 534.773 236.953 538.446 236.953 538.78H237.12H236.953C236.953 538.613 237.12 538.613 236.953 538.78ZM237.787 537.778C237.62 537.778 237.62 537.945 237.453 537.945C237.453 536.61 237.453 534.606 238.287 533.771C238.454 533.604 238.621 533.437 238.954 533.437H239.121C239.621 533.437 239.621 533.771 239.788 533.938C239.788 534.773 238.787 536.777 237.787 537.778ZM237.954 538.446C239.454 537.445 241.789 536.276 242.623 536.61C242.789 536.61 242.956 536.777 242.956 537.111C243.123 537.445 242.956 537.945 242.789 538.279C242.122 538.78 240.288 538.947 237.954 538.446Z" fill="#3C43BF"/>
<path d="M238.454 526.425L217.277 524.255C217.277 524.255 209.106 478.007 214.442 423.745C205.104 422.075 200.435 423.745 183.593 421.24C136.236 414.061 85.377 393.024 85.377 393.024L117.06 363.472C117.06 363.472 247.959 382.673 245.958 416.065C242.29 471.829 238.454 526.425 238.454 526.425Z" fill="#0564A5"/>
<path opacity="0.5" d="M208.606 423.077C203.604 422.91 205.938 423.411 200.769 422.743C202.27 410.889 198.268 399.702 194.433 394.861C186.762 385.511 158.581 383.173 147.242 381.17C137.737 379.5 106.055 376.161 106.055 376.161C106.055 376.161 147.242 372.154 189.43 384.509C210.107 390.854 213.442 410.388 208.606 423.077Z" fill="#565191"/>
<path d="M162.583 537.445H189.096L190.931 528.095L161.916 528.596L162.583 537.445Z" fill="#005482"/>
<path d="M215.61 529.263L239.789 528.929L240.79 520.248L214.943 520.081L215.61 529.263Z" fill="#005482"/>
<path d="M235.954 537.111L220.947 537.278C220.447 537.278 219.946 537.611 219.946 538.112L219.279 549.967C219.279 551.302 220.28 552.304 221.614 552.304C226.783 552.137 229.284 551.803 235.954 551.803C239.956 551.803 248.127 552.137 253.63 551.135C259.133 550.134 258.132 544.791 255.631 544.624C249.795 544.29 241.957 540.617 238.289 537.778C237.622 537.278 236.788 537.111 235.954 537.111Z" fill="#322A63"/>
<path class="animation-cercel-2" d="M183.26 548.13H183.593C183.593 548.13 183.927 548.13 183.927 548.297C183.927 548.297 183.927 548.297 183.927 548.464C183.927 548.464 183.927 548.464 184.094 548.464C185.261 548.798 186.428 548.965 187.595 548.965C188.429 549.132 189.43 548.798 190.097 548.297C190.597 547.796 190.764 547.128 190.43 546.627C190.43 546.293 190.097 545.959 189.763 545.792C188.929 545.459 187.429 545.959 186.095 546.627C186.928 545.626 187.429 544.29 187.262 543.455C187.095 542.954 186.595 542.453 186.095 542.453C185.594 542.453 184.927 542.62 184.594 542.954C183.26 544.123 183.26 547.796 183.26 548.13ZM184.594 547.295C184.427 547.295 184.427 547.462 184.26 547.462C184.26 546.126 184.427 544.123 185.094 543.288C185.261 543.121 185.428 542.954 185.761 542.954H185.928C186.428 542.954 186.428 543.288 186.595 543.455C186.762 544.457 185.594 546.293 184.594 547.295ZM184.761 547.963C186.261 546.961 188.596 545.959 189.43 546.293C189.596 546.293 189.763 546.46 189.763 546.794C189.93 547.128 189.763 547.629 189.596 547.963C188.929 548.297 187.262 548.464 184.761 547.963Z" fill="#3C43BF"/>
<path class="animation-cercel-2" d="M182.76 546.46L167.752 546.293C167.252 546.293 166.752 546.627 166.752 547.128L165.918 558.982C165.918 560.318 166.918 561.32 168.252 561.32C173.422 561.32 175.923 560.986 182.593 560.986C186.595 560.986 194.599 561.487 200.269 560.652C205.771 559.817 204.771 554.308 202.436 554.141C196.6 553.807 188.93 549.967 185.094 546.961C184.427 546.794 183.594 546.46 182.76 546.46Z" fill="#322A63"/>
<path d="M174.588 303.366C174.588 303.366 178.757 326.24 186.427 330.581C193.931 334.922 246.624 339.263 246.624 339.263L251.794 321.899C251.794 321.899 203.269 323.569 197.766 306.706C197.6 306.372 196.099 296.688 196.099 296.688L174.588 303.366Z" fill="#0075EA"/>
<path d="M190.93 267.47C194.432 271.811 199.434 303.367 199.434 303.367L173.755 309.377L168.252 293.349L190.93 267.47Z" fill="url(#paint19_linear)"/>
<path d="M59.1973 380.836L145.574 366.477C145.574 366.477 150.91 315.221 191.097 267.637C191.097 267.637 177.257 237.25 127.732 241.424C77.8734 245.431 59.1973 380.836 59.1973 380.836Z" fill="url(#paint20_linear)"/>
<path class="animation-cercel-1" d="M126.232 285.001C126.232 285.001 125.898 315.221 128.566 316.556C131.234 317.892 192.098 318.393 199.769 316.389C211.942 313.384 224.448 323.402 224.448 323.402L231.618 329.078C231.618 329.078 211.942 332.918 202.937 328.41C202.937 328.41 132.735 338.428 120.229 336.425C107.722 334.421 103.387 287.171 103.387 287.171L126.232 285.001Z" fill="#FFD9B3"/>
<path class="animation-cercel-1" d="M126.231 293.349C126.231 293.349 128.398 305.37 129.399 308.375C133.401 322.233 190.93 315.889 190.93 315.889L193.264 330.915C193.264 330.915 129.399 342.769 117.226 336.592C105.053 330.414 104.053 296.855 104.053 296.855L126.231 293.349Z" fill="#00AAFF"/>
<path d="M118.56 246.6C134.067 244.93 130.065 299.693 130.065 299.693L102.051 303.7C101.884 303.7 91.0457 249.438 118.56 246.6Z" fill="url(#paint21_linear)"/>
<path d="M143.072 242.593C143.072 242.593 142.572 266.802 157.413 269.14C172.254 271.644 173.754 251.943 173.754 251.943C173.754 251.943 163.749 241.257 143.072 242.593Z" fill="#63ADE8"/>
<path d="M180.259 255.95C176.591 254.28 172.255 255.95 172.255 255.95C172.255 255.95 170.754 264.298 161.25 264.799C160.082 264.799 158.748 264.799 157.414 264.632C144.575 262.795 145.909 243.595 145.909 243.595C151.245 243.929 155.747 242.426 159.415 240.423C165.085 237.083 168.253 232.575 168.253 232.575L180.259 255.95Z" fill="#FFD9B3"/>
<path d="M180.259 255.95C176.59 254.28 172.255 255.95 172.255 255.95C172.255 255.95 170.754 264.298 161.249 264.799C157.914 256.618 158.414 247.101 159.415 240.423C165.084 237.083 168.253 232.575 168.253 232.575L180.259 255.95Z" fill="#EFC7A3"/>
<path d="M190.264 218.718C184.594 222.558 187.096 229.236 200.102 239.588C205.438 232.742 206.272 219.386 202.103 216.046C197.768 212.707 195.266 215.212 190.264 218.718Z" fill="#263238"/>
<path d="M165.416 229.403C166.083 243.428 165.75 251.776 172.586 259.122C183.092 270.141 200.434 263.964 204.102 250.106C207.271 237.584 205.77 216.714 192.096 210.871C182.425 206.697 171.086 211.205 166.917 220.888C165.75 223.393 165.249 226.398 165.416 229.403Z" fill="#FFD9B3"/>
<path d="M186.428 233.577C186.428 234.746 186.928 235.581 187.762 235.748C188.429 235.748 189.096 234.913 189.096 233.744C189.096 232.575 188.595 231.741 187.762 231.574C186.928 231.574 186.428 232.408 186.428 233.577Z" fill="#271E59"/>
<path d="M199.268 233.911C199.268 235.08 199.768 235.915 200.602 236.082C201.269 236.082 201.936 235.247 201.936 234.078C201.936 232.909 201.435 232.075 200.602 231.908C199.935 231.741 199.434 232.742 199.268 233.911Z" fill="#271E59"/>
<path d="M195.098 234.245C196.432 237.751 198.267 241.09 200.434 244.096C198.267 245.932 194.932 245.097 194.932 245.097L195.098 234.245Z" fill="#FFAE71"/>
<path d="M205.104 226.231C204.938 226.398 204.771 226.565 204.437 226.565C202.77 226.398 201.102 227.066 199.935 228.401C199.768 228.735 199.268 228.735 198.934 228.568C198.601 228.401 198.601 227.901 198.768 227.567C200.102 225.897 202.269 225.062 204.437 225.229C204.771 225.229 205.104 225.563 205.104 225.897C205.271 226.064 205.271 226.231 205.104 226.231Z" fill="#271E59"/>
<path d="M191.763 228.735C191.596 228.735 191.263 228.735 191.096 228.568C189.929 227.4 188.261 226.732 186.594 226.899C186.26 226.899 185.927 226.732 185.76 226.398C185.76 226.064 185.927 225.73 186.26 225.563C188.428 225.229 190.596 226.064 192.096 227.567C192.43 227.901 192.43 228.234 192.096 228.568C191.93 228.735 191.93 228.735 191.763 228.735Z" fill="#271E59"/>
<path d="M171.253 217.048C177.757 219.386 176.923 226.565 166.751 239.755C159.914 234.412 155.912 221.723 159.081 217.382C162.416 213.041 165.584 215.045 171.253 217.048Z" fill="#271E59"/>
<path d="M158.579 240.589C159.58 244.096 161.748 246.934 164.749 248.771C168.751 251.108 171.92 247.769 171.753 243.261C171.586 239.254 169.252 233.243 164.749 232.742C160.247 232.074 157.412 236.249 158.579 240.589Z" fill="#FFAE71"/>
<path d="M184.428 247.435C184.428 247.435 186.929 252.11 193.599 251.776" stroke="#26175A" stroke-width="0.5263" stroke-miterlimit="10" stroke-linecap="round" stroke-linejoin="round"/>
<path d="M172.754 221.89C172.754 221.89 178.257 222.224 180.758 225.73C180.758 225.73 182.926 223.393 182.092 219.219C182.092 219.219 188.762 220.053 191.763 224.728C191.763 224.728 193.264 221.723 192.764 219.219C192.764 219.219 194.932 221.89 194.765 224.728C194.765 224.728 199.934 221.556 199.267 218.384C199.267 218.384 201.101 220.554 201.935 223.727C201.935 223.727 205.27 222.558 204.603 216.547C204.603 216.547 206.771 219.052 206.938 220.888C206.938 220.888 211.273 208.533 194.765 201.521C178.257 194.508 159.247 202.856 159.58 216.547C160.081 230.405 172.754 221.89 172.754 221.89Z" fill="#271E59"/>
<path d="M193.597 235.915C193.597 239.588 191.096 242.426 188.095 242.426C185.093 242.426 182.592 239.421 182.592 235.915C182.592 232.242 185.093 229.403 188.095 229.403C191.096 229.403 193.597 232.242 193.597 235.915Z" stroke="#26175A" stroke-width="0.5263" stroke-miterlimit="10" stroke-linecap="round" stroke-linejoin="round"/>
<path d="M208.605 235.748C208.605 239.421 206.104 242.259 203.102 242.259C200.101 242.259 197.6 239.254 197.6 235.748C197.6 232.075 200.101 229.236 203.102 229.236C206.104 229.069 208.605 232.075 208.605 235.748Z" stroke="#26175A" stroke-width="0.5263" stroke-miterlimit="10" stroke-linecap="round" stroke-linejoin="round"/>
<path d="M193.598 235.915C193.598 235.915 195.765 234.078 197.6 235.748" stroke="#26175A" stroke-width="0.5263" stroke-miterlimit="10" stroke-linecap="round" stroke-linejoin="round"/>
<path d="M182.592 235.915L169.252 234.746" stroke="#26175A" stroke-width="0.5263" stroke-miterlimit="10" stroke-linecap="round" stroke-linejoin="round"/>
<path d="M306.655 328.911V333.252C306.655 334.588 304.321 335.59 303.153 335.59H200.101C198.767 335.59 196.6 334.588 196.6 333.252V328.911H306.655Z" fill="#E1F7FF"/>
<path d="M306.655 328.911V333.252C306.655 334.588 304.321 335.59 303.153 335.59H235.119C233.785 335.59 231.617 334.588 231.617 333.252V328.911H306.655Z" fill="#C0F2FF"/>
<path d="M323.163 274.816L310.823 330.748C310.49 332.585 308.656 334.087 306.821 334.087H239.787C237.953 334.087 236.786 332.251 237.286 330.414L249.459 275.15C249.792 273.314 251.627 272.479 253.461 272.479H320.495C322.496 272.145 323.663 272.98 323.163 274.816Z" fill="#E1F7FF"/>
<path d="M323.164 274.816L310.825 330.748C310.491 332.585 308.657 334.087 306.823 334.087H242.123C240.289 334.087 239.122 332.251 239.622 330.414L251.962 275.15C252.295 273.314 254.129 272.479 255.964 272.479H320.663C322.497 272.145 323.664 272.98 323.164 274.816Z" fill="#F5FBFF"/>
<path d="M283.811 309.711C286.979 309.711 290.148 306.372 290.981 302.198C291.815 298.024 289.981 294.685 286.813 294.685C286.146 294.685 285.645 294.852 285.145 295.018C284.478 298.191 282.143 301.029 279.809 301.864C279.809 302.031 279.809 302.031 279.642 302.198C278.808 306.372 280.643 309.711 283.811 309.711Z" fill="url(#paint22_linear)"/>
<path d="M386.696 336.258H354.68L355.847 332.918L373.523 329.579L375.023 311.214L373.523 310.88L363.351 308.542L365.852 290.344L381.36 306.038L386.696 336.258Z" fill="#BDFFDE"/>
<path d="M379.191 303.867L373.521 310.88L363.35 308.542L365.851 290.344L379.191 303.867Z" fill="#7DC6BB"/>
<path d="M364.017 316.723H346.008C345.174 316.723 344.674 316.055 344.841 315.388L355.179 238.419C355.346 237.584 356.013 237.083 356.68 237.083H374.689C375.523 237.083 376.023 237.751 375.856 238.419L365.518 315.388C365.518 316.055 364.684 316.723 364.017 316.723Z" fill="#F6F5FF"/>
<path d="M359.681 314.219H346.008L356.18 239.421H369.853L359.681 314.219Z" fill="url(#paint23_linear)"/>
<path d="M315.992 341.934V342.936L314.491 569H308.655L305.82 342.936V341.934H315.992Z" fill="#BDFFDE"/>
<path d="M419.544 541.285H413.208L397.533 342.936V341.934H407.705L407.872 342.936L419.544 541.285Z" fill="#BDFFDE"/>
<path d="M140.903 341.934L140.736 342.936L123.061 569H117.225L130.565 342.936V341.934H140.903Z" fill="#BDFFDE"/>
<path d="M426.548 342.936H111.889C109.888 342.936 108.221 341.266 108.221 339.263C108.221 337.259 109.888 335.59 111.889 335.59H426.548C428.549 335.59 430.217 337.259 430.217 339.263C430.05 341.266 428.549 342.936 426.548 342.936Z" fill="#0075EA"/>
<path d="M28.8477 350.115H51.8593C51.8593 350.115 52.026 344.94 51.6925 344.94C51.359 344.94 28.8477 344.94 28.8477 344.94V350.115Z" fill="#97DEEF"/>
<defs>
<linearGradient id="paint0_linear" x1="598.833" y1="430.924" x2="568.229" y2="430.924" gradientUnits="userSpaceOnUse">
<stop stop-color="#09AFEB"/>
<stop offset="1" stop-color="#20E1AE"/>
</linearGradient>
<linearGradient id="paint1_linear" x1="598.833" y1="430.924" x2="568.229" y2="430.924" gradientUnits="userSpaceOnUse">
<stop stop-color="#09AFEB"/>
<stop offset="1" stop-color="#20E1AE"/>
</linearGradient>
<linearGradient id="paint2_linear" x1="549.427" y1="426.841" x2="522.088" y2="426.841" gradientUnits="userSpaceOnUse">
<stop stop-color="#09AFEB"/>
<stop offset="1" stop-color="#20E1AE"/>
</linearGradient>
<linearGradient id="paint3_linear" x1="549.427" y1="426.841" x2="522.088" y2="426.841" gradientUnits="userSpaceOnUse">
<stop stop-color="#09AFEB"/>
<stop offset="1" stop-color="#20E1AE"/>
</linearGradient>
<linearGradient id="paint4_linear" x1="537.578" y1="385.019" x2="505.371" y2="385.019" gradientUnits="userSpaceOnUse">
<stop stop-color="#09AFEB"/>
<stop offset="1" stop-color="#20E1AE"/>
</linearGradient>
<linearGradient id="paint5_linear" x1="567.786" y1="370.118" x2="539.314" y2="370.118" gradientUnits="userSpaceOnUse">
<stop stop-color="#09AFEB"/>
<stop offset="1" stop-color="#20E1AE"/>
</linearGradient>
<linearGradient id="paint6_linear" x1="567.786" y1="370.118" x2="539.314" y2="370.118" gradientUnits="userSpaceOnUse">
<stop stop-color="#09AFEB"/>
<stop offset="1" stop-color="#20E1AE"/>
</linearGradient>
<linearGradient id="paint7_linear" x1="521.403" y1="423.527" x2="495.314" y2="423.527" gradientUnits="userSpaceOnUse">
<stop stop-color="#09AFEB"/>
<stop offset="1" stop-color="#20E1AE"/>
</linearGradient>
<linearGradient id="paint8_linear" x1="521.403" y1="423.527" x2="495.314" y2="423.527" gradientUnits="userSpaceOnUse">
<stop stop-color="#09AFEB"/>
<stop offset="1" stop-color="#20E1AE"/>
</linearGradient>
<linearGradient id="paint9_linear" x1="585.932" y1="380.881" x2="561.683" y2="390.731" gradientUnits="userSpaceOnUse">
<stop stop-color="#09AFEB"/>
<stop offset="1" stop-color="#20E1AE"/>
</linearGradient>
<linearGradient id="paint10_linear" x1="585.932" y1="380.881" x2="561.683" y2="390.731" gradientUnits="userSpaceOnUse">
<stop stop-color="#09AFEB"/>
<stop offset="1" stop-color="#20E1AE"/>
</linearGradient>
<linearGradient id="paint11_linear" x1="561.771" y1="404.637" x2="545.334" y2="404.637" gradientUnits="userSpaceOnUse">
<stop stop-color="#09AFEB"/>
<stop offset="1" stop-color="#20E1AE"/>
</linearGradient>
<linearGradient id="paint12_linear" x1="561.771" y1="404.637" x2="545.334" y2="404.637" gradientUnits="userSpaceOnUse">
<stop stop-color="#09AFEB"/>
<stop offset="1" stop-color="#20E1AE"/>
</linearGradient>
<linearGradient id="paint13_linear" x1="519.959" y1="406.371" x2="501.281" y2="406.371" gradientUnits="userSpaceOnUse">
<stop stop-color="#09AFEB"/>
<stop offset="1" stop-color="#20E1AE"/>
</linearGradient>
<linearGradient id="paint14_linear" x1="519.959" y1="406.371" x2="501.281" y2="406.371" gradientUnits="userSpaceOnUse">
<stop stop-color="#09AFEB"/>
<stop offset="1" stop-color="#20E1AE"/>
</linearGradient>
<linearGradient id="paint15_linear" x1="663.907" y1="198.683" x2="478.074" y2="198.683" gradientUnits="userSpaceOnUse">
<stop stop-color="#09AFEB"/>
<stop offset="1" stop-color="#20E1AE"/>
</linearGradient>
<linearGradient id="paint16_linear" x1="576.547" y1="82.1444" x2="366.354" y2="82.1444" gradientUnits="userSpaceOnUse">
<stop stop-color="#09AFEB"/>
<stop offset="1" stop-color="#20E1AE"/>
</linearGradient>
<linearGradient id="paint17_linear" x1="466.533" y1="147.092" x2="223.279" y2="147.092" gradientUnits="userSpaceOnUse">
<stop stop-color="#09AFEB"/>
<stop offset="1" stop-color="#20E1AE"/>
</linearGradient>
<linearGradient id="paint18_linear" x1="154.801" y1="174.64" x2="85.375" y2="174.64" gradientUnits="userSpaceOnUse">
<stop stop-color="#09AFEB"/>
<stop offset="1" stop-color="#20E1AE"/>
</linearGradient>
<linearGradient id="paint19_linear" x1="200.79" y1="288.424" x2="168.252" y2="288.424" gradientUnits="userSpaceOnUse">
<stop stop-color="#09AFEB"/>
<stop offset="1" stop-color="#20E1AE"/>
</linearGradient>
<linearGradient id="paint20_linear" x1="196.832" y1="310.933" x2="59.1973" y2="310.933" gradientUnits="userSpaceOnUse">
<stop stop-color="#09AFEB"/>
<stop offset="1" stop-color="#20E1AE"/>
</linearGradient>
<linearGradient id="paint21_linear" x1="131.865" y1="275.131" x2="99.8086" y2="275.131" gradientUnits="userSpaceOnUse">
<stop stop-color="#09AFEB"/>
<stop offset="1" stop-color="#20E1AE"/>
</linearGradient>
<linearGradient id="paint22_linear" x1="291.693" y1="302.198" x2="279.441" y2="302.198" gradientUnits="userSpaceOnUse">
<stop stop-color="#09AFEB"/>
<stop offset="1" stop-color="#20E1AE"/>
</linearGradient>
<linearGradient id="paint23_linear" x1="370.89" y1="276.82" x2="346.008" y2="276.82" gradientUnits="userSpaceOnUse">
<stop stop-color="#09AFEB"/>
<stop offset="1" stop-color="#20E1AE"/>
</linearGradient>
</defs>
</svg>
