<?xml version="1.0" encoding="utf-8"?>
<!-- Generator: Adobe Illustrator 24.0.0, SVG Export Plug-In . SVG Version: 6.00 Build 0)  -->
<svg version="1.1" id="Layer_1" xmlns="http://www.w3.org/2000/svg" xmlns:xlink="http://www.w3.org/1999/xlink" x="0px" y="0px"
	 viewBox="0 0 100 100" style="enable-background:new 0 0 100 100;" xml:space="preserve">
<style type="text/css">
	.st0{fill:#DFDEE9;}
	.st1{fill:url(#SVGID_1_);}
</style>
<g>
	<g>
		<path class="st0" d="M88.3,41H11.7c-0.6,0-1-0.4-1-1s0.4-1,1-1h76.6c0.6,0,1,0.4,1,1S88.9,41,88.3,41z"/>
	</g>
	<g>
		<path class="st0" d="M88.3,61H11.7c-0.6,0-1-0.4-1-1s0.4-1,1-1h76.6c0.6,0,1,0.4,1,1S88.9,61,88.3,61z"/>
	</g>
	
		<linearGradient id="SVGID_1_" gradientUnits="userSpaceOnUse" x1="49.3678" y1="14.5834" x2="63.8016" y2="14.5834" gradientTransform="matrix(0.7071 0.7071 -0.7071 0.7071 20.3208 -22.8033)">
		<stop  offset="0" style="stop-color:#20E2AD"/>
		<stop  offset="1" style="stop-color:#08AEEC"/>
	</linearGradient>
	<polyline class="st1" points="41.3,29 50,17.3 58.7,29 	"/>
	<polyline class="st0" points="58.7,71 50,82.7 41.3,71 	"/>
</g>
</svg>
