<?xml version="1.0" encoding="utf-8"?>
<!-- Generator: Adobe Illustrator 24.0.0, SVG Export Plug-In . SVG Version: 6.00 Build 0)  -->
<svg version="1.1" id="Layer_1" xmlns="http://www.w3.org/2000/svg" xmlns:xlink="http://www.w3.org/1999/xlink" x="0px" y="0px"
	 viewBox="0 0 1510.1 258.6" style="enable-background:new 0 0 1510.1 258.6;" xml:space="preserve">
<style type="text/css">
	.st0{fill:url(#SVGID_1_);}
	.st1{fill:#FFFFFF;}
	.st2{fill:#FF004F;}
</style>
<linearGradient id="SVGID_1_" gradientUnits="userSpaceOnUse" x1="38.6" y1="129.25" x2="285.8" y2="129.25">
	<stop  offset="1.331947e-07" style="stop-color:#FFFFFF"/>
	<stop  offset="1" style="stop-color:#FFFFFF"/>
</linearGradient>
<path class="st0" d="M241.3,5.6H17.1c-6.4,0-11.5,5.3-11.5,11.5v224.3c0,6.4,5.2,11.5,11.5,11.5h224.3c6.3,0,11.4-5.1,11.4-11.6
	V17.1C252.8,10.7,247.6,5.6,241.3,5.6z M96.8,196.2c-0.1,2.2-1.7,4-3.9,4H71.4c-2.1,0-3.9-1.8-3.9-4V62.4c0-2.2,1.7-4,3.9-4h21.5
	c2.1,0,3.9,1.8,3.9,4V196.2z M191,196.2c0,2.2-1.7,4-3.9,4h-74.8c-2.1,0-3.9-1.8-3.9-4v-22.4c0-2.2,1.7-4,3.9-4h74.8
	c2.1,0,3.9,1.8,3.9,4V196.2z M191,84.8v33.3v22.4c0,2.2-1.7,4-3.9,4h-21.5h-53.3c-2.1,0-3.9-1.8-3.9-4v-22.4c0-2.2,1.7-4,3.9-4h49.4
	V88.8h-49.4c-2.1,0-3.9-1.8-3.9-4V62.4c0-2.2,1.7-4,3.9-4h53.3h21.5c2.1,0,3.9,1.8,3.9,4V84.8z"/>
<g>
	<path class="st1" d="M332.3,92v29.1h44.6l5.1,20.5h-49.8v29.1h60v20.5h-80.6V71.5h80.6V92H332.3z"/>
	<path class="st1" d="M477,170.7v20.5h-47h-20.5v-20.5v-99H430v99H477z"/>
	<path class="st1" d="M512.9,92v29.1h44.6l5.1,20.5h-49.8v29.1h60v20.5h-80.6V71.5h80.6V92H512.9z"/>
	<path class="st1" d="M709.9,71.3V191h-20.5v-84.8l-39.5,61.1l-39.3-61.1V191h-20.5V71.3h22.4l37.5,58.2l37.6-58.2H709.9z"/>
	<path class="st1" d="M751,92v29.1h44.6l5.2,20.5H751v29.1h60v20.5h-80.6V71.5H811V92H751z"/>
	<path class="st1" d="M919,71.3V191h-22.2l-48.1-81.9V191h-20.5V71.3h22.2l48.1,81.9V71.3H919z"/>
	<path class="st1" d="M1025.2,92h-35.1v99.2h-20.5V92h-35.2V71.5h35.2h20.5h35.1V92z"/>
	<path class="st1" d="M1136.2,74.9c5.2,2.3,9.8,5.4,13.7,9.2c3.9,3.9,7,8.4,9.2,13.6c2.3,5.2,3.4,10.8,3.4,16.7
		c0,5.9-1.1,11.5-3.4,16.8c-2.3,5.2-5.4,9.8-9.2,13.7c-3.9,3.9-8.4,7-13.7,9.2c-5.2,2.3-10.8,3.4-16.8,3.4h-17.1l8.4-20.5h8.7
		c6.2,0,11.5-2.2,15.9-6.7c4.4-4.4,6.7-9.7,6.7-15.9c0-6.3-2.2-11.5-6.7-15.7c-4.4-4.4-9.8-6.7-15.9-6.7h-24.1v99.2h-20.5V71.5h44.6
		C1125.4,71.5,1131,72.6,1136.2,74.9z"/>
	<path class="st1" d="M1284.7,191.2h-22.6l-9.2-20.5l-9.2-20.5l-24.3-53.7l-24.3,53.7h31.1l9.2,20.5h-49.6l-9.2,20.5H1154
		l54.1-119.7h22.6L1284.7,191.2z"/>
	<path class="st1" d="M1399.6,175.2c-5.7,5.7-12.3,10.2-19.8,13.4s-15.6,4.9-24.3,4.9c-8.6,0-16.6-1.6-24.2-4.9
		c-7.6-3.3-14.2-7.7-19.8-13.3s-10.1-12.3-13.3-19.8c-3.3-7.6-4.9-15.7-4.9-24.2c0-8.6,1.6-16.6,4.9-24.2s7.7-14.2,13.3-19.8
		s12.3-10.1,19.8-13.3c7.6-3.3,15.7-4.9,24.2-4.9c8.7,0,16.8,1.6,24.3,4.9s14.1,7.7,19.8,13.4l-14.5,14.5c-4-4-8.5-7-13.5-9.2
		c-5-2.1-10.4-3.2-16.1-3.2c-5.6,0-10.9,1.1-15.9,3.2s-9.5,5.2-13.5,9.2s-7,8.5-9.2,13.5c-2.1,5-3.2,10.3-3.2,15.9
		c0,5.6,1.1,10.9,3.2,16s5.2,9.6,9.2,13.6s8.5,7,13.5,9.1s10.3,3.1,15.9,3.1c5.7,0,11.1-1,16.1-3.1s9.5-5.1,13.5-9.1L1399.6,175.2z"
		/>
	<path class="st1" d="M1481,191.6l-45.5-45.5v45.2H1415V71.7h20.5V117l45.2-45.2h29.1l-59.7,59.7l60,60H1481V191.6z"/>
</g>
<path class="st2" d="M1504.6,65.9h-108.7c-2.8,0-5-2.2-5-5V8.1c0-2.8,2.2-5,5-5h108.7c2.8,0,5,2.2,5,5v52.8
	C1509.6,63.6,1507.3,65.9,1504.6,65.9z"/>
<g>
	<path class="st1" d="M1407.7,16.6h5.8v35.2h-5.8V16.6z M1410.4,32.6h11.2c0.9,0,1.8-0.2,2.5-0.6s1.2-1,1.6-1.8s0.6-1.7,0.6-2.7
		s-0.2-2-0.6-2.8s-0.9-1.4-1.6-1.8s-1.5-0.7-2.5-0.7h-11.2v-5.5h11.1c2.1,0,4,0.4,5.7,1.3c1.6,0.9,2.9,2.2,3.8,3.8
		c0.9,1.6,1.4,3.5,1.4,5.7s-0.5,4-1.4,5.6s-2.2,2.9-3.8,3.8c-1.6,0.9-3.5,1.3-5.7,1.3h-11.1V32.6z"/>
	<path class="st1" d="M1438,16.6h5.8v35.2h-5.8V16.6z M1440.4,31.7h12.1c0.8,0,1.5-0.2,2.1-0.6s1.1-1,1.4-1.7s0.5-1.6,0.5-2.5
		c0-1-0.2-1.8-0.5-2.5s-0.8-1.3-1.4-1.7c-0.6-0.4-1.3-0.6-2.2-0.6h-12.1v-5.5h12.3c2,0,3.7,0.4,5.2,1.3s2.7,2.1,3.5,3.6
		c0.8,1.6,1.2,3.4,1.2,5.4c0,2.1-0.4,3.9-1.2,5.4c-0.8,1.6-2,2.8-3.5,3.6c-1.5,0.9-3.2,1.3-5.2,1.3h-12.3L1440.4,31.7L1440.4,31.7z
		 M1448.9,36.2l6-1.1l9.2,16.7h-6.9L1448.9,36.2z"/>
	<path class="st1" d="M1474.6,50.5c-1.9-1.1-3.4-2.6-4.4-4.5c-1-2-1.6-4.2-1.6-6.8v-10c0-2.6,0.5-4.8,1.6-6.8c1-2,2.5-3.5,4.4-4.5
		c1.9-1.1,4.1-1.6,6.6-1.6s4.7,0.5,6.6,1.6s3.4,2.6,4.4,4.5s1.6,4.2,1.6,6.8v10c0,2.6-0.5,4.8-1.6,6.8c-1,2-2.5,3.5-4.4,4.5
		c-1.9,1.1-4.1,1.6-6.6,1.6S1476.5,51.6,1474.6,50.5z M1484.7,45.5c1-0.6,1.8-1.4,2.3-2.5s0.8-2.3,0.8-3.7V29c0-1.4-0.3-2.6-0.8-3.7
		s-1.3-1.9-2.3-2.5s-2.2-0.9-3.5-0.9s-2.5,0.3-3.5,0.9s-1.8,1.4-2.3,2.5s-0.8,2.3-0.8,3.7v10.3c0,1.4,0.3,2.6,0.8,3.7
		c0.5,1.1,1.3,1.9,2.3,2.5s2.2,0.9,3.5,0.9S1483.7,46.1,1484.7,45.5z"/>
</g>
</svg>
