<?xml version="1.0" encoding="utf-8"?>
<!-- Generator: Adobe Illustrator 24.0.0, SVG Export Plug-In . SVG Version: 6.00 Build 0)  -->
<svg version="1.1" id="Layer_1" xmlns="http://www.w3.org/2000/svg" xmlns:xlink="http://www.w3.org/1999/xlink" x="0px" y="0px"
	 viewBox="0 0 100 100" style="enable-background:new 0 0 100 100;" xml:space="preserve">
<style type="text/css">
	.st0{fill:#DEDDE8;}
	.st1{fill:none;}
	.st2{fill:url(#SVGID_1_);}
</style>
<g>
	<rect x="77.8" y="20.5" class="st0" width="2" height="55.5"/>
</g>
<g>
	<rect x="20.2" y="20.5" class="st0" width="2" height="55.5"/>
</g>
<circle class="st0" cx="44.4" cy="35.9" r="3.7"/>
<line class="st1" x1="71.6" y1="21.5" x2="65.4" y2="21.5"/>
<line class="st1" x1="63.4" y1="21.5" x2="36.6" y2="21.5"/>
<line class="st1" x1="34.6" y1="21.5" x2="23" y2="21.5"/>
<line class="st1" x1="69.4" y1="74.9" x2="65.4" y2="74.9"/>
<linearGradient id="SVGID_1_" gradientUnits="userSpaceOnUse" x1="5.8" y1="53.75" x2="94.2" y2="53.75" gradientTransform="matrix(1 0 0 -1 0 102)">
	<stop  offset="0" style="stop-color:#20E2AD"/>
	<stop  offset="1" style="stop-color:#08AEEC"/>
</linearGradient>
<path class="st2" d="M91.2,19.5H65.4H34.6H8.8c-1.7,0-3,1.3-3,3V74c0,1.7,1.3,3,3,3h25.8h30.8h25.8c1.7,0,3-1.3,3-3V22.5
	C94.2,20.8,92.8,19.5,91.2,19.5z M92.2,73.9c0,0.5-0.5,1-1,1H65.4h-2H36.6h-2H8.8c-0.5,0-1-0.5-1-1V22.5c0-0.6,0.5-1,1-1h25.8h30.8
	h25.8c0.5,0,1,0.4,1,1V73.9z"/>
<line class="st1" x1="34.6" y1="74.9" x2="29.4" y2="74.9"/>
<g>
	<path class="st0" d="M22.1,59.5L20.7,58l12.5-12.5c1.3-1.3,3.7-1.3,5,0l4.9,4.9c0.6,0.6,1.6,0.6,2.2,0l11-11c1.4-1.4,3.6-1.4,5,0
		l18.1,18.1L78.1,59L60,40.9c-0.6-0.6-1.6-0.6-2.2,0l-11,11c-1.3,1.3-3.7,1.3-5,0L36.8,47c-0.6-0.6-1.6-0.6-2.2,0L22.1,59.5z"/>
</g>
</svg>
