<?xml version="1.0" encoding="utf-8"?>
<!-- Generator: Adobe Illustrator 24.0.0, SVG Export Plug-In . SVG Version: 6.00 Build 0)  -->
<svg version="1.1" id="Layer_1" xmlns="http://www.w3.org/2000/svg" xmlns:xlink="http://www.w3.org/1999/xlink" x="0px" y="0px"
	 viewBox="0 0 100 100" style="enable-background:new 0 0 100 100;" xml:space="preserve">
<style type="text/css">
	.st0{fill:#DEDDE8;}
	.st1{fill:url(#SVGID_1_);}
</style>
<g>
	<g>
		<path class="st0" d="M95.8,46.5H57.6c-2.4,0-4.2-1.8-4.2-4.2V4.2c0-2.4,1.8-4.2,4.2-4.2h38.2c2.4,0,4.2,1.8,4.2,4.2v38.2
			C100,44.7,98.2,46.5,95.8,46.5z M57.6,2.8c-0.8,0-1.4,0.6-1.4,1.4v38.2c0,0.8,0.6,1.4,1.4,1.4h38.2c0.8,0,1.4-0.6,1.4-1.4V4.2
			c0-0.8-0.6-1.4-1.4-1.4C95.8,2.8,57.6,2.8,57.6,2.8z"/>
	</g>
</g>
<g>
	<g>
		<path class="st0" d="M95.8,100H57.6c-2.4,0-4.2-1.8-4.2-4.2V57.6c0-2.4,1.8-4.2,4.2-4.2h38.2c2.4,0,4.2,1.8,4.2,4.2v38.2
			C100,98.2,98.2,100,95.8,100z M57.6,56.2c-0.8,0-1.4,0.6-1.4,1.4v38.2c0,0.8,0.6,1.4,1.4,1.4h38.2c0.8,0,1.4-0.6,1.4-1.4V57.6
			c0-0.8-0.6-1.4-1.4-1.4C95.8,56.2,57.6,56.2,57.6,56.2z"/>
	</g>
</g>
<g>
	<g>
		<path class="st0" d="M42.4,100H4.2C1.8,100,0,98.2,0,95.8V57.6c0-2.4,1.8-4.2,4.2-4.2h38.2c2.4,0,4.2,1.8,4.2,4.2v38.2
			C46.5,98.2,44.7,100,42.4,100z M4.2,56.2c-0.8,0-1.4,0.6-1.4,1.4v38.2c0,0.8,0.6,1.4,1.4,1.4h38.2c0.8,0,1.4-0.6,1.4-1.4V57.6
			c0-0.8-0.6-1.4-1.4-1.4C42.4,56.2,4.2,56.2,4.2,56.2z"/>
	</g>
</g>
<linearGradient id="SVGID_1_" gradientUnits="userSpaceOnUse" x1="0" y1="1123.3" x2="46.5374" y2="1123.3" gradientTransform="matrix(1 0 0 1 0 -1100)">
	<stop  offset="0" style="stop-color:#20E2AD"/>
	<stop  offset="1" style="stop-color:#08AEEC"/>
</linearGradient>
<path class="st1" d="M42.4,0H4.2C1.8,0,0,1.8,0,4.2v38.2c0,2.4,1.8,4.2,4.2,4.2h38.2c2.4,0,4.2-1.8,4.2-4.2V4.2
	C46.5,1.9,44.7,0,42.4,0z M28.3,23.4h-3.6V32h-3.3v-8.6h-3v-2.9h3v-1.7c0-2.5,1.7-4.4,4-4.4h2.8v3h-2.6c-0.3,0-0.7,0.4-0.7,1v2.1
	h3.5L28.3,23.4L28.3,23.4z"/>
<g>
	<path class="st0" d="M87.1,16.9c-0.8,0.4-1.7,0.6-2.5,0.7c0.8-0.6,1.5-1.4,1.8-2.4c-0.8,0.6-1.7,0.8-2.6,1.1C83,15.5,82,15,80.6,15
		c-1.2,0-2.2,0.4-3,1.2c-0.8,0.8-1.2,1.8-1.2,3c0,0.3,0,0.7,0.1,1c-1.7-0.1-3.3-0.6-4.8-1.4s-2.8-1.8-3.9-3.2
		c-0.4,0.7-0.6,1.4-0.6,2.2s0.1,1.4,0.6,1.9c0.4,0.6,0.8,1.1,1.4,1.5c-0.7,0-1.4-0.3-1.9-0.6v0.1c0,1.1,0.3,1.9,1,2.6
		s1.5,1.2,2.5,1.5c-0.4,0.1-0.7,0.1-1.1,0.1c-0.3,0-0.6,0-0.8-0.1c0.3,0.8,0.7,1.5,1.5,2.1c0.7,0.6,1.5,0.8,2.5,0.8
		c-1.5,1.2-3.3,1.8-5.3,1.8c-0.4,0-0.7,0-1.1-0.1c1.9,1.2,4.2,1.9,6.5,1.9c1.5,0,2.9-0.3,4.3-0.7c1.4-0.4,2.5-1.1,3.5-1.9
		s1.8-1.7,2.5-2.8c0.7-1.1,1.2-2.2,1.5-3.3c0.3-1.1,0.6-2.4,0.6-3.5c0-0.3,0-0.4,0-0.6C85.9,18.4,86.6,17.7,87.1,16.9z"/>
</g>
<g>
	<path class="st0" d="M32.3,78.7v6.6h-3.9v-6.2c0-1.5-0.6-2.6-1.9-2.6c-1.1,0-1.7,0.7-1.9,1.4c-0.1,0.3-0.1,0.6-0.1,1v6.5h-3.9
		c0,0,0-10.5,0-11.5h3.9v1.7l0,0l0,0l0,0c0.6-0.8,1.4-1.9,3.5-1.9C30.3,73.5,32.3,75.2,32.3,78.7L32.3,78.7z M16.5,68.3
		c-1.2,0-2.2,0.8-2.2,1.9s0.8,1.9,2.1,1.9l0,0c1.4,0,2.2-0.8,2.2-1.9C18.6,69.1,17.9,68.3,16.5,68.3L16.5,68.3z M14.5,85.3h3.9V73.8
		h-3.9V85.3z"/>
</g>
<g>
	<path class="st0" d="M84.7,92.7H68.7c-4.4,0-8-3.6-8-8V68.7c0-4.4,3.6-8,8-8h15.9c4.4,0,8,3.6,8,8v15.9
		C92.7,89.1,89.1,92.7,84.7,92.7z M68.7,62.7c-3.3,0-6,2.7-6,6v15.9c0,3.3,2.7,6,6,6h15.9c3.3,0,6-2.7,6-6V68.7c0-3.3-2.7-6-6-6
		H68.7z"/>
</g>
<g>
	<path class="st0" d="M76.7,84.7c-4.4,0-8-3.6-8-8s3.6-8,8-8s8,3.6,8,8S81.1,84.7,76.7,84.7z M76.7,70.7c-3.3,0-6,2.7-6,6s2.7,6,6,6
		s6-2.7,6-6S80,70.7,76.7,70.7z"/>
</g>
<g>
	<path class="st0" d="M85.6,65.8L85.6,65.8c1.1,0,2,0.9,2,2l0,0c0,1.1-0.9,2-2,2h0c-1.1,0-2-0.9-2-2l0,0
		C83.6,66.7,84.5,65.8,85.6,65.8z"/>
</g>
</svg>
