<?xml version="1.0" encoding="utf-8"?>
<!-- Generator: Adobe Illustrator 25.0.0, SVG Export Plug-In . SVG Version: 6.00 Build 0)  -->
<svg version="1.1" id="Layer_1" xmlns="http://www.w3.org/2000/svg" xmlns:xlink="http://www.w3.org/1999/xlink" x="0px" y="0px"
	 viewBox="0 0 100 100" style="enable-background:new 0 0 100 100;" xml:space="preserve">
<style type="text/css">
	.st0{fill:#F4F4F4;}
	.st1{fill:#DEDCE7;}
	.st2{fill:url(#SVGID_1_);}
	.st3{fill:#FFFFFF;}
</style>
<g>
	<path class="st0" d="M71,58L16.4,72c-1.2,0.3-2.1-0.6-2.1-2V34.1c0-1.4,1-2.8,2.1-3.1l54.6-14c1.2-0.3,2.1,0.6,2.1,2v35.9
		C73.2,56.3,72.2,57.7,71,58z"/>
	<path class="st1" d="M77.3,64.3l-54.6,14c-1.2,0.3-2.1-0.6-2.1-2V40.4c0-1.4,1-2.8,2.1-3.1l54.6-14c1.2-0.3,2.1,0.6,2.1,2v35.9
		C79.4,62.6,78.5,64,77.3,64.3z"/>
	
		<linearGradient id="SVGID_1_" gradientUnits="userSpaceOnUse" x1="26.84" y1="62.7347" x2="85.7078" y2="62.7347" gradientTransform="matrix(1 -0.2186 0 1 0 5.0384)">
		<stop  offset="0" style="stop-color:#20E2AD"/>
		<stop  offset="1" style="stop-color:#08AEEC"/>
	</linearGradient>
	<path class="st2" d="M83.6,68.9L29,82.9c-1.2,0.3-2.1-0.6-2.1-2V45.1c0-1.4,1-2.8,2.1-3.1l54.6-14c1.2-0.3,2.1,0.6,2.1,2v35.9
		C85.7,67.3,84.7,68.6,83.6,68.9z"/>
	<g>
		<path class="st3" d="M46.3,57.3c0,0.1,0,0.2,0,0.3c0,0.6-0.1,1.2-0.3,1.7c-0.2,0.6-0.5,1.1-0.9,1.6c-0.4,0.5-0.8,0.9-1.4,1.3
			c-0.5,0.4-1.1,0.6-1.7,0.8c-0.6,0.1-1.1,0.2-1.7,0.1s-1-0.3-1.4-0.6c-0.4-0.3-0.7-0.7-0.9-1.1c-0.2-0.5-0.3-1-0.3-1.6
			c0-0.6,0.1-1.2,0.3-1.7c0.2-0.6,0.5-1.1,0.9-1.6c0.4-0.5,0.8-0.9,1.4-1.3s1.1-0.6,1.7-0.8c0.6-0.2,1.1-0.2,1.7-0.1
			c0.5,0.1,1,0.3,1.3,0.6l-1,1.2c-0.3-0.2-0.6-0.3-0.9-0.4c-0.3-0.1-0.7,0-1.1,0.1c-0.4,0.1-0.7,0.3-1.1,0.5
			c-0.3,0.2-0.6,0.5-0.9,0.9c-0.3,0.3-0.5,0.7-0.6,1.1c-0.1,0.4-0.2,0.8-0.2,1.1s0.1,0.7,0.2,1c0.1,0.3,0.4,0.6,0.6,0.8
			c0.3,0.2,0.6,0.3,0.9,0.4c0.3,0.1,0.7,0,1.1-0.1c0.4-0.1,0.7-0.3,1.1-0.5c0.3-0.2,0.7-0.5,0.9-0.9c0.4-0.5,0.6-1,0.7-1.5l-3.8,1
			l0.3-1.5l4.9-1.2C46.3,57,46.3,57.2,46.3,57.3z"/>
		<path class="st3" d="M52.1,58.8v1.4l-3.2,0.8l-1.4,0.4V60v-6.8l1.4-0.4v6.8L52.1,58.8z"/>
		<path class="st3" d="M61.6,57.8l-1.5,0.4L59.4,57l-0.6-1.2l-1.7-3.2l-1.7,4.1l2.1-0.5l0.6,1.2l-3.4,0.9l-0.6,1.6l-1.5,0.4l3.7-9.1
			l1.5-0.4L61.6,57.8z"/>
		<path class="st3" d="M67.8,53.9c0,0.4-0.1,0.7-0.2,1.1c-0.1,0.3-0.3,0.6-0.5,0.9c-0.2,0.3-0.5,0.5-0.8,0.7
			c-0.3,0.2-0.7,0.4-1.1,0.5c-0.6,0.2-1.2,0.2-1.7,0.1c-0.5-0.1-0.9-0.2-1.2-0.4l1-1.2c0.3,0.2,0.5,0.3,0.9,0.3c0.2,0,0.4,0,0.5,0
			c0.2,0,0.3,0,0.4-0.1c0.2-0.1,0.4-0.1,0.6-0.2c0.2-0.1,0.3-0.2,0.4-0.3c0.3-0.3,0.4-0.6,0.4-0.9c0-0.2-0.1-0.4-0.2-0.5
			c-0.1-0.1-0.2-0.2-0.4-0.2c-0.1,0-0.3-0.1-0.4-0.1c-0.2,0-0.3,0-0.4,0c0,0-0.1,0-0.1,0c0,0-0.1,0-0.1,0c0,0,0,0-0.1,0
			c-0.2,0-0.4,0-0.7-0.1c-0.3,0-0.6-0.1-0.9-0.2c-0.7-0.3-1.1-0.8-1.1-1.5c0-0.5,0.1-0.9,0.2-1.2c0.2-0.4,0.4-0.7,0.6-0.9
			c0.3-0.3,0.5-0.5,0.9-0.6c0.3-0.2,0.6-0.3,0.9-0.4c0.6-0.1,1-0.2,1.4-0.2c0.4,0,0.7,0.1,0.9,0.2c0.1,0,0.2,0.1,0.3,0.1
			c0.1,0,0.2,0.1,0.2,0.1l-1,1.3c-0.2-0.2-0.4-0.3-0.6-0.3c-0.3-0.1-0.7-0.1-1,0c-0.2,0-0.3,0.1-0.5,0.2s-0.3,0.2-0.4,0.3
			c-0.3,0.3-0.5,0.6-0.5,1c0,0.2,0.1,0.4,0.2,0.5c0.1,0.1,0.2,0.2,0.4,0.2c0.1,0,0.3,0.1,0.5,0.1c0.2,0,0.3,0,0.5,0l0.1,0
			c0,0,0.1,0,0.2,0c0.1,0,0.2,0,0.4,0c0.1,0,0.3,0.1,0.5,0.1c0.2,0,0.3,0.1,0.5,0.2C67.4,52.7,67.8,53.2,67.8,53.9z"/>
		<path class="st3" d="M74.6,52.2c0,0.4-0.1,0.7-0.2,1.1c-0.1,0.3-0.3,0.6-0.5,0.9c-0.2,0.3-0.5,0.5-0.8,0.7
			c-0.3,0.2-0.7,0.4-1.1,0.5c-0.6,0.2-1.2,0.2-1.7,0.1c-0.5-0.1-0.9-0.2-1.2-0.4l1-1.2c0.3,0.2,0.5,0.3,0.9,0.3c0.2,0,0.4,0,0.5,0
			c0.2,0,0.3,0,0.4-0.1c0.2-0.1,0.4-0.1,0.6-0.2c0.2-0.1,0.3-0.2,0.4-0.3c0.3-0.3,0.4-0.6,0.4-0.9c0-0.2-0.1-0.4-0.2-0.5
			c-0.1-0.1-0.2-0.2-0.4-0.2c-0.1,0-0.3-0.1-0.4-0.1c-0.2,0-0.3,0-0.4,0c0,0-0.1,0-0.1,0c0,0-0.1,0-0.1,0c0,0,0,0-0.1,0
			c-0.2,0-0.4,0-0.7-0.1s-0.6-0.1-0.9-0.2c-0.7-0.3-1.1-0.8-1.1-1.5c0-0.5,0.1-0.9,0.2-1.2c0.2-0.4,0.4-0.7,0.6-0.9s0.5-0.5,0.9-0.6
			c0.3-0.2,0.6-0.3,0.9-0.4c0.6-0.1,1-0.2,1.4-0.2c0.4,0,0.7,0.1,0.9,0.2c0.1,0,0.2,0.1,0.3,0.1c0.1,0,0.2,0.1,0.2,0.1l-1,1.3
			c-0.2-0.2-0.4-0.3-0.6-0.3c-0.3-0.1-0.7-0.1-1,0c-0.2,0-0.3,0.1-0.5,0.2c-0.2,0.1-0.3,0.2-0.4,0.3c-0.3,0.3-0.5,0.6-0.5,1
			c0,0.2,0.1,0.4,0.2,0.5c0.1,0.1,0.2,0.2,0.4,0.2c0.1,0,0.3,0.1,0.5,0.1c0.2,0,0.3,0,0.5,0l0.1,0c0,0,0.1,0,0.2,0
			c0.1,0,0.2,0,0.4,0c0.1,0,0.3,0.1,0.5,0.1c0.2,0,0.3,0.1,0.5,0.2C74.2,51,74.6,51.5,74.6,52.2z"/>
	</g>
</g>
</svg>
