<?xml version="1.0" encoding="utf-8"?>
<!-- Generator: Adobe Illustrator 24.0.0, SVG Export Plug-In . SVG Version: 6.00 Build 0)  -->
<svg version="1.1" id="Layer_1" xmlns="http://www.w3.org/2000/svg" xmlns:xlink="http://www.w3.org/1999/xlink" x="0px" y="0px"
	 viewBox="0 0 100 100" style="enable-background:new 0 0 100 100;" xml:space="preserve">
<style type="text/css">
	.st0{fill:#DFDEE9;}
	.st1{fill:url(#SVGID_1_);}
	.st2{fill:url(#SVGID_2_);}
	.st3{fill:url(#SVGID_3_);}
	.st4{fill:url(#SVGID_4_);}
</style>
<rect x="37.3" y="22.2" class="st0" width="2" height="49"/>
<g>
	<rect x="60.7" y="21.2" class="st0" width="2" height="51"/>
</g>
<g>
	
		<linearGradient id="SVGID_1_" gradientUnits="userSpaceOnUse" x1="44.5" y1="55.3" x2="55.5" y2="55.3" gradientTransform="matrix(1 0 0 -1 0 102)">
		<stop  offset="0" style="stop-color:#20E1AE"/>
		<stop  offset="1" style="stop-color:#09B0EB"/>
	</linearGradient>
	<path class="st1" d="M50,52.2c-3,0-5.5-2.5-5.5-5.5s2.5-5.5,5.5-5.5s5.5,2.5,5.5,5.5S53,52.2,50,52.2z M50,42.2
		c-2.5,0-4.5,2-4.5,4.5s2,4.5,4.5,4.5s4.5-2,4.5-4.5S52.5,42.2,50,42.2z"/>
</g>
<linearGradient id="SVGID_2_" gradientUnits="userSpaceOnUse" x1="48.7" y1="55.25" x2="51.55" y2="55.25" gradientTransform="matrix(1 0 0 -1 0 102)">
	<stop  offset="0" style="stop-color:#20E1AE"/>
	<stop  offset="1" style="stop-color:#09B0EB"/>
</linearGradient>
<path class="st2" d="M51.4,46.5l-2.3-1.3c-0.2-0.1-0.4,0-0.4,0.2v2.7c0,0.2,0.2,0.3,0.4,0.2l2.3-1.3C51.6,46.8,51.6,46.6,51.4,46.5z
	"/>
<linearGradient id="SVGID_3_" gradientUnits="userSpaceOnUse" x1="12.8812" y1="55.3" x2="86.2281" y2="55.3" gradientTransform="matrix(1 0 0 -1 0 102)">
	<stop  offset="0" style="stop-color:#20E1AE"/>
	<stop  offset="1" style="stop-color:#09B0EB"/>
</linearGradient>
<path class="st3" d="M83.5,20.2H39.3h-2H16.5c-1.7,0-3,1.3-3,3v47c0,1.7,1.3,3,3,3h20.8h2h44.2c1.7,0,3-1.3,3-3v-47
	C86.5,21.5,85.2,20.2,83.5,20.2z M84.5,70.2c0,0.5-0.5,1-1,1H39.3h-2H16.5c-0.5,0-1-0.5-1-1v-47c0-0.5,0.5-1,1-1h20.8h2h44.2
	c0.5,0,1,0.5,1,1V70.2z"/>
<g>
	
		<linearGradient id="SVGID_4_" gradientUnits="userSpaceOnUse" x1="45" y1="23.2" x2="55" y2="23.2" gradientTransform="matrix(1 0 0 -1 0 102)">
		<stop  offset="0" style="stop-color:#20E1AE"/>
		<stop  offset="1" style="stop-color:#09B0EB"/>
	</linearGradient>
	<path class="st4" d="M54,79.8h-8c-0.6,0-1-0.4-1-1s0.4-1,1-1h8c0.6,0,1,0.4,1,1S54.6,79.8,54,79.8z"/>
</g>
<g>
	<path class="st0" d="M41,79.8h-8c-0.6,0-1-0.4-1-1s0.4-1,1-1h8c0.6,0,1,0.4,1,1S41.6,79.8,41,79.8z"/>
</g>
<g>
	<path class="st0" d="M67,79.8h-8c-0.6,0-1-0.4-1-1s0.4-1,1-1h8c0.6,0,1,0.4,1,1S67.6,79.8,67,79.8z"/>
</g>
</svg>
