<?xml version="1.0" encoding="utf-8"?>
<!-- Generator: Adobe Illustrator 24.0.0, SVG Export Plug-In . SVG Version: 6.00 Build 0)  -->
<svg version="1.1" id="Layer_1" xmlns="http://www.w3.org/2000/svg" xmlns:xlink="http://www.w3.org/1999/xlink" x="0px" y="0px"
	 viewBox="0 0 100 100" style="enable-background:new 0 0 100 100;" xml:space="preserve">
<style type="text/css">
	.st0{fill:#DFDEE9;}
	.st1{fill:#DEDCE7;}
	.st2{fill:url(#SVGID_1_);}
	.st3{fill:url(#SVGID_2_);}
	.st4{fill:url(#SVGID_3_);}
	.st5{fill:url(#SVGID_4_);}
	.st6{fill:url(#SVGID_5_);}
	.st7{fill:#DEDDE8;}
</style>
<g>
	<g>
		<path class="st0" d="M96.2,82.4H3.8c-1.9,0-3.4-1.5-3.4-3.4V21c0-1.9,1.5-3.4,3.4-3.4h92.4c1.9,0,3.4,1.5,3.4,3.4v58
			C99.5,80.9,98.1,82.4,96.2,82.4z M3.8,19.9c-0.7,0-1.1,0.4-1.1,1.1v58c0,0.7,0.4,1.1,1.1,1.1h92.4c0.7,0,1.1-0.4,1.1-1.1V21
			c0-0.7-0.4-1.1-1.1-1.1H3.8z"/>
	</g>
</g>
<g>
	<path class="st1" d="M51.5,53.1H10c-0.7,0-1.1-0.4-1.1-1.1l0,0c0-0.7,0.4-1.1,1.1-1.1h41.5c0.7,0,1.1,0.4,1.1,1.1l0,0
		C52.6,52.7,52.1,53.1,51.5,53.1z"/>
	<path class="st1" d="M46.7,58.7H17.2c-0.7,0-1.1-0.4-1.1-1.1l0,0c0-0.7,0.4-1.1,1.1-1.1h29.5c0.7,0,1.1,0.4,1.1,1.1l0,0
		C47.8,58.3,47.3,58.7,46.7,58.7z"/>
	<path class="st1" d="M40.7,64.3H23.2c-0.7,0-1.1-0.4-1.1-1.1l0,0c0-0.7,0.4-1.1,1.1-1.1h17.5c0.7,0,1.1,0.4,1.1,1.1l0,0
		C41.8,63.9,41.3,64.3,40.7,64.3z"/>
	<g>
		<linearGradient id="SVGID_1_" gradientUnits="userSpaceOnUse" x1="22.8399" y1="40.1234" x2="38.9014" y2="40.1234">
			<stop  offset="0" style="stop-color:#20E2AD"/>
			<stop  offset="1" style="stop-color:#08AEEC"/>
		</linearGradient>
		<path class="st2" d="M28.3,39.4L25,42.7c-0.5,0.5-1.3,0.5-1.8,0l0,0c-0.5-0.5-0.5-1.3,0-1.8l3.3-3.3c0.5-0.5,1.3-0.5,1.8,0l0,0
			C28.8,38.2,28.8,38.9,28.3,39.4z"/>
		<linearGradient id="SVGID_2_" gradientUnits="userSpaceOnUse" x1="22.8399" y1="38.4234" x2="38.9014" y2="38.4234">
			<stop  offset="0" style="stop-color:#20E2AD"/>
			<stop  offset="1" style="stop-color:#08AEEC"/>
		</linearGradient>
		<path class="st3" d="M34.3,37.9l-2.9,2.9c-0.5,0.5-1.3,0.5-1.8,0l0,0c-0.5-0.5-0.5-1.3,0-1.8l2.9-2.9c0.5-0.5,1.3-0.5,1.8,0l0,0
			C34.8,36.7,34.8,37.4,34.3,37.9z"/>
		<linearGradient id="SVGID_3_" gradientUnits="userSpaceOnUse" x1="22.8399" y1="40.1676" x2="38.9014" y2="40.1676">
			<stop  offset="0" style="stop-color:#20E2AD"/>
			<stop  offset="1" style="stop-color:#08AEEC"/>
		</linearGradient>
		<path class="st4" d="M29.8,42.8l-3.3-3.4c-0.5-0.5-0.5-1.3,0-1.8l0,0c0.5-0.5,1.3-0.5,1.8,0l3.3,3.3c0.5,0.5,0.5,1.3,0,1.8l0,0
			C31,43.3,30.3,43.3,29.8,42.8z"/>
		<linearGradient id="SVGID_4_" gradientUnits="userSpaceOnUse" x1="22.8399" y1="38.9734" x2="38.9014" y2="38.9734">
			<stop  offset="0" style="stop-color:#20E2AD"/>
			<stop  offset="1" style="stop-color:#08AEEC"/>
		</linearGradient>
		<path class="st5" d="M36.6,41.9l-4-4c-0.5-0.5-0.5-1.3,0-1.8l0,0c0.5-0.5,1.3-0.5,1.8,0l4,4c0.5,0.5,0.5,1.3,0,1.8l0,0
			C37.8,42.4,37.1,42.4,36.6,41.9z"/>
	</g>
</g>
<g>
	<linearGradient id="SVGID_5_" gradientUnits="userSpaceOnUse" x1="0.4" y1="50" x2="61.25" y2="50">
		<stop  offset="0" style="stop-color:#20E2AD"/>
		<stop  offset="1" style="stop-color:#08AEEC"/>
	</linearGradient>
	<path class="st6" d="M3.8,17.6c-1.9,0-3.4,1.5-3.4,3.4v58c0,1.9,1.5,3.4,3.4,3.4h57.5V17.6H3.8z M3.8,80.1c-0.7,0-1.1-0.4-1.1-1.1
		V21c0-0.7,0.4-1.1,1.1-1.1h55v60.2H3.8z"/>
</g>
<g>
	<rect x="72.7" y="17.6" class="st7" width="2.5" height="64.4"/>
</g>
<g>
	<rect x="85.7" y="17.6" class="st7" width="2.5" height="64.4"/>
</g>
</svg>
