<?xml version="1.0" encoding="utf-8"?>
<!-- Generator: Adobe Illustrator 24.0.0, SVG Export Plug-In . SVG Version: 6.00 Build 0)  -->
<svg version="1.1" id="Layer_1" xmlns="http://www.w3.org/2000/svg" xmlns:xlink="http://www.w3.org/1999/xlink" x="0px" y="0px"
	 viewBox="0 0 100 100" style="enable-background:new 0 0 100 100;" xml:space="preserve">
<style type="text/css">
	.st0{fill:#DFDEE9;}
	.st1{fill:url(#SVGID_1_);}
</style>
<g>
	<g>
		<path class="st0" d="M72.9,86H27.1c-1.7,0-3-1.3-3-3V41.5h51.8V83C75.9,84.6,74.6,86,72.9,86z M26.1,43.5V83c0,0.6,0.4,1,1,1h45.8
			c0.6,0,1-0.4,1-1V43.5H26.1z"/>
	</g>
	<g>
		<path class="st0" d="M53.9,53.3H33.2c-0.8,0-1.5-0.7-1.5-1.5s0.7-1.5,1.5-1.5h20.7c0.8,0,1.5,0.7,1.5,1.5S54.7,53.3,53.9,53.3z"/>
	</g>
	<g>
		<path class="st0" d="M65.5,59.5H32.7c-0.6,0-1-0.4-1-1s0.4-1,1-1h32.8c0.6,0,1,0.4,1,1S66,59.5,65.5,59.5z"/>
	</g>
	<g>
		<path class="st0" d="M60.1,63.3H32.7c-0.6,0-1-0.4-1-1s0.4-1,1-1h27.4c0.6,0,1,0.4,1,1S60.7,63.3,60.1,63.3z"/>
	</g>
	<g>
		<path class="st0" d="M53.4,67.1H32.7c-0.6,0-1-0.4-1-1s0.4-1,1-1h20.7c0.6,0,1,0.4,1,1S53.9,67.1,53.4,67.1z"/>
	</g>
	<g>
		<path class="st0" d="M36.5,80.9c-2.6,0-4.8-2.1-4.8-4.8c0-2.6,2.1-4.8,4.8-4.8c2.6,0,4.8,2.1,4.8,4.8
			C41.2,78.7,39.1,80.9,36.5,80.9z M36.5,73.4c-1.5,0-2.8,1.2-2.8,2.8c0,1.5,1.2,2.8,2.8,2.8c1.5,0,2.8-1.2,2.8-2.8
			C39.2,74.6,38,73.4,36.5,73.4z"/>
	</g>
	<linearGradient id="SVGID_1_" gradientUnits="userSpaceOnUse" x1="24.0801" y1="28.765" x2="75.9199" y2="28.765">
		<stop  offset="0" style="stop-color:#20E1AE"/>
		<stop  offset="1" style="stop-color:#09B0EB"/>
	</linearGradient>
	<path class="st1" d="M72.9,14H27.1c-1.7,0-3,1.3-3,3v26.5h51.8V17C75.9,15.4,74.6,14,72.9,14z M68,35.3c-0.2,0.2-0.5,0.3-0.7,0.3
		s-0.5-0.1-0.7-0.3l-11-11c-0.4-0.4-1-0.4-1.4,0l-6,6l3.6,3.6c0.4,0.4,0.4,1,0,1.4c-0.2,0.2-0.5,0.3-0.7,0.3c-0.3,0-0.5-0.1-0.7-0.3
		l-7.8-7.8c-0.4-0.4-1-0.4-1.4,0L33.5,35c-0.4,0.4-1,0.4-1.4,0s-0.4-1,0-1.4l7.5-7.5c1.2-1.2,3.1-1.2,4.2,0l2.8,2.8l6-6
		c1.2-1.2,3.1-1.2,4.2,0l11,11C68.3,34.3,68.3,34.9,68,35.3z"/>
</g>
</svg>
