<?xml version="1.0" encoding="utf-8"?>
<!-- Generator: Adobe Illustrator 24.0.0, SVG Export Plug-In . SVG Version: 6.00 Build 0)  -->
<svg version="1.1" id="Layer_1" xmlns="http://www.w3.org/2000/svg" xmlns:xlink="http://www.w3.org/1999/xlink" x="0px" y="0px"
	 viewBox="0 0 100 100" style="enable-background:new 0 0 100 100;" xml:space="preserve">
<style type="text/css">
	.st0{fill:url(#SVGID_1_);}
	.st1{fill:url(#SVGID_2_);}
	.st2{fill:url(#SVGID_3_);}
	.st3{fill:url(#SVGID_4_);}
	.st4{fill:url(#SVGID_5_);}
	.st5{fill:url(#SVGID_6_);}
	.st6{fill:url(#SVGID_7_);}
	.st7{fill:url(#SVGID_8_);}
	.st8{fill:url(#SVGID_9_);}
</style>
<g>
	<g>
		<g>
			<linearGradient id="SVGID_1_" gradientUnits="userSpaceOnUse" x1="14.9422" y1="46.2585" x2="84.6902" y2="46.2585">
				<stop  offset="0" style="stop-color:#20E2AD"/>
				<stop  offset="1" style="stop-color:#08AEEC"/>
			</linearGradient>
			<path class="st0" d="M82.3,53.4H17.7c-1.7,0-3-1.3-3-3v-8.2c0-1.7,1.3-3,3-3h64.5c1.7,0,3,1.3,3,3v8.2
				C85.3,52,83.9,53.4,82.3,53.4z M17.7,41.2c-0.6,0-1,0.4-1,1v8.2c0,0.6,0.4,1,1,1h64.5c0.6,0,1-0.4,1-1v-8.2c0-0.6-0.4-1-1-1H17.7
				z"/>
		</g>
		<g>
			<linearGradient id="SVGID_2_" gradientUnits="userSpaceOnUse" x1="14.9422" y1="63.4714" x2="84.6902" y2="63.4714">
				<stop  offset="0" style="stop-color:#20E2AD"/>
				<stop  offset="1" style="stop-color:#08AEEC"/>
			</linearGradient>
			<path class="st1" d="M82.3,70.6H17.7c-1.7,0-3-1.3-3-3v-8.2c0-1.7,1.3-3,3-3h64.5c1.7,0,3,1.3,3,3v8.2
				C85.3,69.2,83.9,70.6,82.3,70.6z M17.7,58.4c-0.6,0-1,0.4-1,1v8.2c0,0.6,0.4,1,1,1h64.5c0.6,0,1-0.4,1-1v-8.2c0-0.6-0.4-1-1-1
				H17.7z"/>
		</g>
		<g>
			<linearGradient id="SVGID_3_" gradientUnits="userSpaceOnUse" x1="14.9422" y1="80.6838" x2="84.6902" y2="80.6838">
				<stop  offset="0" style="stop-color:#20E2AD"/>
				<stop  offset="1" style="stop-color:#08AEEC"/>
			</linearGradient>
			<path class="st2" d="M82.3,87.8H17.7c-1.7,0-3-1.3-3-3v-8.2c0-1.7,1.3-3,3-3h64.5c1.7,0,3,1.3,3,3v8.2
				C85.3,86.4,83.9,87.8,82.3,87.8z M17.7,75.6c-0.6,0-1,0.4-1,1v8.2c0,0.6,0.4,1,1,1h64.5c0.6,0,1-0.4,1-1v-8.2c0-0.6-0.4-1-1-1
				H17.7z"/>
		</g>
	</g>
	<g>
		<linearGradient id="SVGID_4_" gradientUnits="userSpaceOnUse" x1="14.9422" y1="23.2102" x2="84.6902" y2="23.2102">
			<stop  offset="0" style="stop-color:#20E2AD"/>
			<stop  offset="1" style="stop-color:#08AEEC"/>
		</linearGradient>
		<path class="st3" d="M50,34.2c-6.1,0-11-4.9-11-11s4.9-11,11-11s11,4.9,11,11S56.1,34.2,50,34.2z M50,14.2c-5,0-9,4-9,9s4,9,9,9
			c5,0,9-4,9-9S55,14.2,50,14.2z"/>
	</g>
	<g>
		<linearGradient id="SVGID_5_" gradientUnits="userSpaceOnUse" x1="14.9422" y1="23.2102" x2="84.6902" y2="23.2102">
			<stop  offset="0" style="stop-color:#20E2AD"/>
			<stop  offset="1" style="stop-color:#08AEEC"/>
		</linearGradient>
		<path class="st4" d="M76.3,24.2H64.7c-0.6,0-1-0.4-1-1s0.4-1,1-1h11.5c0.6,0,1,0.4,1,1S76.8,24.2,76.3,24.2z"/>
	</g>
	<g>
		
			<linearGradient id="SVGID_6_" gradientUnits="userSpaceOnUse" x1="14.9422" y1="-26.6626" x2="84.6902" y2="-26.6626" gradientTransform="matrix(-0.7071 0.7071 -0.7071 -0.7071 75.4518 -17.1698)">
			<stop  offset="0" style="stop-color:#20E2AD"/>
			<stop  offset="1" style="stop-color:#08AEEC"/>
		</linearGradient>
		<path class="st5" d="M72.8,27.7c-0.3,0-0.5-0.1-0.7-0.3c-0.4-0.4-0.4-1,0-1.4l2.8-2.8l-2.8-2.8c-0.4-0.4-0.4-1,0-1.4s1-0.4,1.4,0
			l4.2,4.2l-4.2,4.2C73.3,27.6,73,27.7,72.8,27.7z"/>
	</g>
	<g>
		<linearGradient id="SVGID_7_" gradientUnits="userSpaceOnUse" x1="14.9422" y1="46.2585" x2="84.6902" y2="46.2585">
			<stop  offset="0" style="stop-color:#20E2AD"/>
			<stop  offset="1" style="stop-color:#08AEEC"/>
		</linearGradient>
		<path class="st6" d="M35.6,47.3H22.9c-0.6,0-1-0.4-1-1s0.4-1,1-1h12.7c0.6,0,1,0.4,1,1S36.2,47.3,35.6,47.3z"/>
	</g>
	<g>
		<linearGradient id="SVGID_8_" gradientUnits="userSpaceOnUse" x1="14.9422" y1="63.4714" x2="84.6902" y2="63.4714">
			<stop  offset="0" style="stop-color:#20E2AD"/>
			<stop  offset="1" style="stop-color:#08AEEC"/>
		</linearGradient>
		<path class="st7" d="M35.6,64.5H22.9c-0.6,0-1-0.4-1-1s0.4-1,1-1h12.7c0.6,0,1,0.4,1,1S36.2,64.5,35.6,64.5z"/>
	</g>
	<g>
		<linearGradient id="SVGID_9_" gradientUnits="userSpaceOnUse" x1="14.9422" y1="80.6843" x2="84.6902" y2="80.6843">
			<stop  offset="0" style="stop-color:#20E2AD"/>
			<stop  offset="1" style="stop-color:#08AEEC"/>
		</linearGradient>
		<path class="st8" d="M57.1,81.7H42.9c-0.6,0-1-0.4-1-1s0.4-1,1-1h14.1c0.6,0,1,0.4,1,1S57.6,81.7,57.1,81.7z"/>
	</g>
</g>
</svg>
