<?xml version="1.0" encoding="utf-8"?>
<!-- Generator: Adobe Illustrator 24.0.0, SVG Export Plug-In . SVG Version: 6.00 Build 0)  -->
<svg version="1.1" id="Layer_1" xmlns="http://www.w3.org/2000/svg" xmlns:xlink="http://www.w3.org/1999/xlink" x="0px" y="0px"
	 viewBox="0 0 100 100" style="enable-background:new 0 0 100 100;" xml:space="preserve">
<style type="text/css">
	.st0{fill:#DEDDE8;}
	.st1{fill:url(#SVGID_1_);}
	.st2{fill:url(#SVGID_2_);}
	.st3{fill:url(#SVGID_3_);}
</style>
<g>
	<g>
		<g>
			<path class="st0" d="M87.7,44.6c-0.2-9-3.4-17.3-8.5-24c-0.4-0.5-0.8-1.1-1.3-1.6c-0.3-0.3-0.5-0.6-0.8-0.9
				c-0.5-0.5-0.9-1-1.4-1.5c-6.9-6.9-16.1-11.3-26.4-12c-0.8,0-1.6-0.1-2.4-0.1h-0.2c-0.8,0-1.6,0-2.4,0.1
				c-10.3,0.6-19.6,5.1-26.4,12c-0.5,0.5-1,1-1.4,1.5c-0.3,0.3-0.5,0.6-0.8,0.9c-0.5,0.5-0.9,1-1.3,1.6c-5.2,6.7-8.3,15-8.5,24
				c0,0.3,0,0.7,0,1s0,0.7,0,1c0.2,9,3.4,17.3,8.5,24c0.4,0.5,0.8,1.1,1.3,1.6c0.3,0.3,0.5,0.6,0.8,0.9c0.5,0.5,0.9,1,1.4,1.5
				c6.9,6.9,16.1,11.3,26.4,12c0.8,0.1,1.6,0.1,2.4,0.1h0.2c0.8,0,1.6,0,2.4-0.1c2.1-0.1,4.2-0.4,6.3-0.9c0.7-0.1,1.4-0.3,2-0.5
				c-0.4-0.6-0.7-1.2-1-1.8c-0.7,0.2-1.3,0.3-2,0.5c-1.9,0.4-3.9,0.6-5.9,0.7c-0.4,0-0.7,0-1.1,0c-0.3,0-0.5,0-0.8,0s-0.5,0-0.8,0
				c-0.4,0-0.8,0-1.1,0c-10-0.5-19.1-4.8-25.7-11.5c-0.5-0.5-0.9-1-1.4-1.5c-0.3-0.3-0.6-0.7-0.9-1c-0.4-0.5-0.9-1.1-1.3-1.6
				c-4.7-6.3-7.6-14-7.8-22.4c0-0.3,0-0.7,0-1c0-0.3,0-0.7,0-1c0.2-8.4,3.1-16.1,7.8-22.4c0.4-0.5,0.8-1.1,1.3-1.6
				c0.3-0.3,0.6-0.7,0.9-1c0.5-0.5,0.9-1,1.4-1.5c6.6-6.7,15.7-11,25.7-11.5c0.4,0,0.8,0,1.1,0c0.3,0,0.5,0,0.8,0s0.5,0,0.8,0
				c0.4,0,0.8,0,1.1,0c10,0.5,19.1,4.8,25.7,11.5c0.5,0.5,0.9,1,1.4,1.5c0.3,0.3,0.6,0.7,0.9,1c0.4,0.5,0.9,1.1,1.3,1.6
				c4.7,6.3,7.6,14,7.8,22.4c0,0.3,0,0.7,0,1c0,0.3,0,0.7,0,1c-0.1,3.5-0.6,6.8-1.6,10c-0.2,0.7-0.4,1.3-0.6,2
				c0.6,0.4,1.2,0.8,1.7,1.2c0.3-0.6,0.5-1.3,0.7-2c1.1-3.5,1.7-7.3,1.8-11.1c0-0.3,0-0.7,0-1S87.7,44.9,87.7,44.6z"/>
		</g>
		<path class="st0" d="M58,63.3c0,0.1,0,0.1,0,0.2C58,63.4,58,63.3,58,63.3C58,63.3,58,63.3,58,63.3z M52.4,75.7
			c-1.7,2.8-3.6,5.5-5.7,7.9c-0.3,0.3-0.5,0.6-0.8,0.9c-0.2,0.2-0.4,0.4-0.6,0.6v0c-0.4,0.4-0.8,0.9-1.2,1.3
			c0.8,0.1,1.6,0.1,2.4,0.1c0,0,0.1,0.1,0.1,0.1c0,0,0.1-0.1,0.1-0.1c0.4-0.5,0.8-0.9,1.2-1.4c0.2-0.2,0.4-0.4,0.6-0.7
			c1.5-1.8,2.9-3.7,4.2-5.7c0.6-0.9,1.1-1.7,1.6-2.6c-0.1-0.6-0.1-1.1-0.1-1.7c0-0.9,0.1-1.8,0.2-2.7C53.8,73.2,53.1,74.5,52.4,75.7
			z M62.7,44.6c-0.1-3.7-0.5-7.3-1.1-10.8c-0.1-0.7-0.3-1.3-0.4-2c-0.2-0.9-0.4-1.8-0.7-2.6c-0.2-0.6-0.4-1.3-0.6-1.9
			c-2.4-7.6-6.3-14.6-11.3-20.7C48.4,6.4,48.2,6.2,48,6c-0.4-0.5-0.8-0.9-1.2-1.4c0,0-0.1-0.1-0.1-0.1c0,0-0.1,0.1-0.1,0.1
			c-0.8,0-1.6,0-2.4,0.1C44.6,5.1,45,5.5,45.4,6c0.2,0.2,0.4,0.4,0.6,0.6c0.3,0.3,0.5,0.6,0.8,0.9c5,5.9,8.9,12.8,11.3,20.4
			c0.2,0.6,0.4,1.3,0.6,1.9c0.3,0.9,0.5,1.8,0.7,2.7c0.2,0.7,0.3,1.3,0.4,2c0.6,3.3,1,6.6,1,10.1c0,0.3,0,0.7,0,1s0,0.7,0,1
			c-0.1,3.5-0.4,6.8-1,10.1c-0.1,0.7-0.3,1.3-0.4,2c0,0.1-0.1,0.3-0.1,0.4c-0.2,0.8-0.4,1.5-0.6,2.3c-0.2,0.7-0.4,1.3-0.6,1.9
			c0,0.1,0,0.1,0,0.2c0-0.1,0.1-0.1,0.1-0.1c0.4-0.6,0.9-1.1,1.4-1.7c0.5-0.5,1-1,1.5-1.5c0.1-0.3,0.1-0.5,0.2-0.8
			c0.2-0.7,0.3-1.3,0.4-2c0-0.1,0-0.1,0-0.2c0.7-3.4,1-7,1.1-10.6c0-0.3,0-0.7,0-1S62.7,44.9,62.7,44.6z"/>
		<g>
			<path class="st0" d="M46.8,86.6c0.8,0,1.6,0,2.4-0.1c-0.4-0.4-0.8-0.9-1.2-1.3c-0.2-0.2-0.4-0.4-0.6-0.6
				c-0.3-0.3-0.5-0.6-0.8-0.9c-6-7.1-10.4-15.6-12.5-25c-0.2-0.7-0.3-1.3-0.4-2c-0.6-3.3-1-6.6-1-10.1c0-0.3,0-0.7,0-1s0-0.7,0-1
				c0.1-3.5,0.4-6.8,1-10.1c0.1-0.7,0.3-1.3,0.4-2c2.1-9.4,6.5-17.9,12.5-25c0.3-0.3,0.5-0.6,0.8-0.9C47.6,6.4,47.8,6.2,48,6
				c0.4-0.4,0.8-0.9,1.2-1.3c-0.8,0-1.6-0.1-2.4-0.1c0,0-0.1-0.1-0.1-0.1c0,0-0.1,0.1-0.1,0.1C46.2,5,45.8,5.5,45.4,6
				c-0.2,0.2-0.4,0.5-0.6,0.7c-6,7.2-10.3,15.8-12.5,25.2c-0.2,0.7-0.3,1.3-0.4,2c-0.7,3.5-1.1,7.1-1.1,10.8c0,0.3,0,0.7,0,1
				s0,0.7,0,1c0.1,3.7,0.5,7.3,1.1,10.8c0.1,0.7,0.3,1.3,0.4,2c2.2,9.4,6.5,18,12.5,25.2c0.2,0.2,0.4,0.4,0.6,0.7v0
				c0.4,0.5,0.8,0.9,1.2,1.4c0,0,0.1,0.1,0.1,0.1C46.7,86.7,46.8,86.6,46.8,86.6z"/>
		</g>
		<path class="st0" d="M58.5,61.3c-0.4-0.1-0.8-0.3-1.3-0.4c-3.4-0.9-6.9-1.4-10.6-1.4c-4.1,0-8.1,0.6-11.9,1.8
			c-0.4,0.1-0.7,0.2-1.1,0.3c-0.3,0.1-0.5,0.2-0.8,0.3c-0.4,0.1-0.7,0.3-1.1,0.4c-5.4,2.1-10.2,5.3-14.2,9.3c-0.5,0.5-0.9,1-1.4,1.5
			c0.5,0.5,0.9,1,1.4,1.5c0.4-0.5,0.9-1,1.4-1.5c3.7-3.7,8.2-6.7,13.2-8.7c0.4-0.2,0.8-0.3,1.2-0.5c0.2-0.1,0.4-0.1,0.7-0.2
			c0.4-0.1,0.8-0.3,1.3-0.4c3.6-1.1,7.4-1.7,11.3-1.7c3.2,0,6.3,0.4,9.3,1.1c0.7,0.2,1.3,0.3,2,0.5c0,0,0,0,0.1,0
			c0.4-0.6,0.9-1.1,1.4-1.7C59.1,61.5,58.8,61.4,58.5,61.3z"/>
		<path class="st0" d="M75.7,16.6c-0.4,0.5-0.9,1-1.4,1.5c-3.7,3.7-8.2,6.7-13.2,8.7c-0.4,0.2-0.8,0.3-1.2,0.5
			c-0.2,0.1-0.4,0.1-0.7,0.2c-0.4,0.1-0.8,0.3-1.3,0.4c-3.6,1.1-7.4,1.7-11.3,1.7S39,29,35.4,27.9c-0.4-0.1-0.8-0.3-1.3-0.4
			c-0.2-0.1-0.4-0.1-0.7-0.2c-0.4-0.2-0.8-0.3-1.2-0.5c-5-2-9.5-5-13.2-8.7c-0.5-0.5-0.9-1-1.4-1.5c-0.5,0.5-1,1-1.4,1.5
			c0.5,0.5,0.9,1,1.4,1.5c4,4,8.8,7.2,14.2,9.3c0.4,0.1,0.7,0.3,1.1,0.4c0.3,0.1,0.5,0.2,0.8,0.3c0.4,0.1,0.7,0.2,1.1,0.3
			c3.8,1.2,7.7,1.8,11.9,1.8s8.1-0.6,11.9-1.8c0.4-0.1,0.7-0.2,1.1-0.3c0.3-0.1,0.5-0.2,0.8-0.3c0.4-0.1,0.7-0.3,1.1-0.4
			c5.4-2.1,10.2-5.3,14.2-9.3c0.5-0.5,0.9-1,1.4-1.5C76.6,17.6,76.2,17.1,75.7,16.6z"/>
		<path class="st0" d="M87.7,46.6h-82c0-0.3,0-0.7,0-1s0-0.7,0-1h82c0,0.3,0,0.7,0,1S87.7,46.2,87.7,46.6z"/>
	</g>
	<linearGradient id="SVGID_1_" gradientUnits="userSpaceOnUse" x1="52.315" y1="74.54" x2="94.315" y2="74.54">
		<stop  offset="0" style="stop-color:#20E2AD"/>
		<stop  offset="1" style="stop-color:#08AEEC"/>
	</linearGradient>
	<path class="st1" d="M85.8,57.7c-0.6-0.4-1.1-0.8-1.7-1.2c-3.2-1.9-6.8-3-10.8-3c-4.3,0-8.4,1.3-11.7,3.6c-0.9,0.6-1.7,1.2-2.5,1.9
		c-0.7,0.6-1.3,1.2-1.8,1.9c-0.5,0.5-0.9,1.1-1.3,1.7c-2.3,3.4-3.7,7.4-3.7,11.8c0,0.4,0,0.8,0,1.2c0.1,1.1,0.2,2.1,0.4,3.1
		c0.3,1.7,0.9,3.4,1.7,4.9c0.3,0.6,0.6,1.2,1,1.8c3.7,6,10.3,9.9,17.8,9.9c11.6,0,21-9.4,21-21C94.3,67.6,91,61.5,85.8,57.7z
		 M73.3,93.5c-6.6,0-12.4-3.4-15.8-8.4c-0.4-0.6-0.7-1.2-1-1.8c-1.1-2.2-1.9-4.5-2.1-7.1c-0.1-0.6-0.1-1.1-0.1-1.7
		c0-0.9,0.1-1.8,0.2-2.7c0.4-3.1,1.6-6,3.4-8.4c0-0.1,0.1-0.1,0.1-0.1c0.4-0.6,0.9-1.1,1.4-1.7c0.5-0.5,1-1,1.5-1.5
		c3.3-2.9,7.7-4.6,12.4-4.6c3.7,0,7.2,1.1,10.2,3c0.6,0.4,1.2,0.8,1.7,1.2c4.4,3.5,7.2,8.8,7.2,14.8C92.3,85,83.8,93.5,73.3,93.5z
		 M58,63.3c0,0.1,0,0.1,0,0.2C58,63.4,58,63.3,58,63.3C58,63.3,58,63.3,58,63.3z"/>
	<g>
		<linearGradient id="SVGID_2_" gradientUnits="userSpaceOnUse" x1="57.3129" y1="74.5401" x2="89.3129" y2="74.5401">
			<stop  offset="0" style="stop-color:#20E2AD"/>
			<stop  offset="1" style="stop-color:#08AEEC"/>
		</linearGradient>
		<path class="st2" d="M73.3,90.5c-8.8,0-16-7.2-16-16s7.2-16,16-16s16,7.2,16,16S82.1,90.5,73.3,90.5z M73.3,60.5
			c-7.7,0-14,6.3-14,14s6.3,14,14,14s14-6.3,14-14S81,60.5,73.3,60.5z"/>
	</g>
	<g>
		<linearGradient id="SVGID_3_" gradientUnits="userSpaceOnUse" x1="72.3149" y1="70.2964" x2="82.8022" y2="70.2964">
			<stop  offset="0" style="stop-color:#20E2AD"/>
			<stop  offset="1" style="stop-color:#08AEEC"/>
		</linearGradient>
		<path class="st3" d="M81.8,75.5h-9.5v-9.5c0-0.6,0.4-1,1-1s1,0.4,1,1v7.5h7.5c0.6,0,1,0.4,1,1S82.4,75.5,81.8,75.5z"/>
	</g>
</g>
</svg>
