<?xml version="1.0" encoding="utf-8"?>
<!-- Generator: Adobe Illustrator 24.0.0, SVG Export Plug-In . SVG Version: 6.00 Build 0)  -->
<svg version="1.1" id="Layer_1" xmlns="http://www.w3.org/2000/svg" xmlns:xlink="http://www.w3.org/1999/xlink" x="0px" y="0px"
	 viewBox="0 0 100 100" style="enable-background:new 0 0 100 100;" xml:space="preserve">
<style type="text/css">
	.st0{fill:#DFDEE9;}
	.st1{fill:url(#SVGID_1_);}
	.st2{opacity:0.2;fill:#FFFFFF;enable-background:new    ;}
</style>
<g>
	<g>
		<path class="st0" d="M83,20H44v60h39c1.7,0,3-1.3,3-3V23C86,21.3,84.7,20,83,20z M84,77c0,0.6-0.4,1-1,1H46V22h37c0.6,0,1,0.4,1,1
			V77z"/>
	</g>
	
		<linearGradient id="SVGID_1_" gradientUnits="userSpaceOnUse" x1="14" y1="52" x2="46" y2="52" gradientTransform="matrix(1 0 0 -1 0 102)">
		<stop  offset="0" style="stop-color:#20E2AD"/>
		<stop  offset="1" style="stop-color:#08AEEC"/>
	</linearGradient>
	<path class="st1" d="M16,20c-1.1,0-2,0.9-2,2v56c0,1.1,0.9,2,2,2h30V20H16z M42.3,28.9c-0.1-0.1-0.1-0.2,0-0.3
		c0.1-0.1,0.3-0.1,0.3,0L44,30l-1.4,1.4c0,0-0.1,0.1-0.2,0.1c-0.1,0-0.1,0-0.2-0.1c-0.1-0.1-0.1-0.2,0-0.3l1.1-1.1L42.3,28.9z
		 M39.6,30c0,0.5-0.5,1-1,1H21.4c-0.5,0-0.9-0.4-1-0.9c0-0.1,0-0.1,0-0.2c0,0,0-0.1,0-0.1c0.1-0.5,0.5-0.9,1-0.9h17.1
		c0.2,0,0.4,0.1,0.6,0.2C39.4,29.4,39.6,29.7,39.6,30z M38.6,71H21.4c-0.6,0-1-0.4-1-1s0.4-1,1-1h17.1c0.6,0,1,0.4,1,1
		S39.1,71,38.6,71z M38.6,61H21.4c-0.6,0-1-0.4-1-1s0.4-1,1-1h17.1c0.6,0,1,0.4,1,1S39.1,61,38.6,61z M38.6,51H21.4
		c-0.6,0-1-0.4-1-1s0.4-1,1-1h17.1c0.6,0,1,0.4,1,1S39.1,51,38.6,51z M38.6,41H21.4c-0.6,0-1-0.4-1-1s0.4-1,1-1h17.1
		c0.6,0,1,0.4,1,1S39.1,41,38.6,41z"/>
	<path class="st2" d="M14,26V34h32V26H14z M38.6,31H21.4c-0.5,0-0.9-0.4-1-0.9c0-0.1,0-0.1,0-0.2c0,0,0-0.1,0-0.1
		c0.1-0.5,0.5-0.9,1-0.9h17.1c0.2,0,0.4,0.1,0.6,0.2c0.3,0.2,0.5,0.5,0.5,0.8C39.6,30.5,39.1,31,38.6,31z M42.6,31.4
		c0,0-0.1,0.1-0.2,0.1c-0.1,0-0.1,0-0.2-0.1c-0.1-0.1-0.1-0.2,0-0.3l1.1-1.1l-1-1.1c-0.1-0.1-0.1-0.2,0-0.3c0.1-0.1,0.3-0.1,0.3,0
		L44,30L42.6,31.4z"/>
	<path class="st0" d="M46,26.1V34h39v-7.9H46z M70.1,31H53c-0.5,0-1-0.5-1-1s0.5-1,1-1h17.1c0.5,0,1,0.5,1,1S70.7,31,70.1,31z
		 M82.6,29.7l-1.5,1.4l-1.5-1.5c-0.1-0.1-0.1-0.3,0-0.4c0.1-0.1,0.3-0.1,0.4,0l1.1,1.1l1.1-1.1c0.1-0.1,0.3-0.1,0.4,0
		C82.7,29.3,82.7,29.5,82.6,29.7z"/>
	<g>
		<path class="st0" d="M70.1,41H53c-0.6,0-1-0.4-1-1s0.4-1,1-1h17.1c0.6,0,1,0.4,1,1S70.7,41,70.1,41z"/>
	</g>
	<g>
		<path class="st0" d="M70.1,51H53c-0.6,0-1-0.4-1-1s0.4-1,1-1h17.1c0.6,0,1,0.4,1,1S70.7,51,70.1,51z"/>
	</g>
	<g>
		<path class="st0" d="M70.1,61H53c-0.6,0-1-0.4-1-1s0.4-1,1-1h17.1c0.6,0,1,0.4,1,1S70.7,61,70.1,61z"/>
	</g>
	<g>
		<path class="st0" d="M70.1,71H53c-0.6,0-1-0.4-1-1s0.4-1,1-1h17.1c0.6,0,1,0.4,1,1S70.7,71,70.1,71z"/>
	</g>
</g>
</svg>
